<svg id="Layer_1" data-name="Layer 1" xmlns="http://www.w3.org/2000/svg" xmlns:xlink="http://www.w3.org/1999/xlink" viewBox="0 0 841.89 595.28"><defs><style>.cls-1{fill:none;}.cls-2{clip-path:url(#clip-path);}.cls-3{clip-path:url(#clip-path-2);}.cls-4{clip-path:url(#clip-path-3);}.cls-5{fill:url(#linear-gradient);}.cls-6{clip-path:url(#clip-path-4);}.cls-7{fill:#5fb6c7;}.cls-10,.cls-11,.cls-12,.cls-13,.cls-14,.cls-22,.cls-27,.cls-28,.cls-30,.cls-31,.cls-32,.cls-33,.cls-34,.cls-35,.cls-36,.cls-40,.cls-41,.cls-42,.cls-43,.cls-44,.cls-49,.cls-56,.cls-60,.cls-64,.cls-68,.cls-69,.cls-7,.cls-70,.cls-71,.cls-72,.cls-73,.cls-74,.cls-75,.cls-76,.cls-77,.cls-78,.cls-79,.cls-8,.cls-80,.cls-81,.cls-82,.cls-83,.cls-84,.cls-85,.cls-86,.cls-87,.cls-88,.cls-89,.cls-9{fill-rule:evenodd;}.cls-8{fill:#f5fcfe;}.cls-9{fill:#3d60b6;}.cls-10{fill:#2750a7;}.cls-11{fill:#202756;}.cls-12{fill:#2b3a91;}.cls-13{fill:#edf9fe;}.cls-14{fill:#75a3dc;}.cls-15{clip-path:url(#clip-path-5);}.cls-16{clip-path:url(#clip-path-6);}.cls-17{clip-path:url(#clip-path-7);}.cls-18{fill:url(#linear-gradient-2);}.cls-19{clip-path:url(#clip-path-8);}.cls-20{clip-path:url(#clip-path-9);}.cls-21{fill:#71d0e2;}.cls-22{fill:#c2ebf4;}.cls-23{clip-path:url(#clip-path-10);}.cls-24{clip-path:url(#clip-path-11);}.cls-25{clip-path:url(#clip-path-12);}.cls-26{fill:url(#linear-gradient-3);}.cls-27{fill:#f6fcfe;}.cls-28{fill:#d6dff3;}.cls-29{clip-path:url(#clip-path-13);}.cls-30{fill:#ffdd5e;}.cls-31{fill:#9cc1e9;}.cls-32{fill:#959595;}.cls-33{fill:#cdccca;}.cls-34{fill:#ef277b;}.cls-35{fill:#fbd01c;}.cls-36{fill:#f25c19;}.cls-37{clip-path:url(#clip-path-14);}.cls-38{clip-path:url(#clip-path-15);}.cls-39{fill:#59812b;}.cls-40{fill:#97bce7;}.cls-41{fill:#fff;}.cls-42{fill:#968bcd;}.cls-43{fill:#fbc907;}.cls-44{fill:#fac009;}.cls-45{clip-path:url(#clip-path-16);}.cls-46{clip-path:url(#clip-path-17);}.cls-47{clip-path:url(#clip-path-18);}.cls-48{fill:url(#linear-gradient-4);}.cls-49{fill:#cee1f5;}.cls-50{clip-path:url(#clip-path-19);}.cls-51{clip-path:url(#clip-path-20);}.cls-52{fill:url(#linear-gradient-5);}.cls-53{clip-path:url(#clip-path-21);}.cls-54{clip-path:url(#clip-path-22);}.cls-55{fill:url(#linear-gradient-6);}.cls-56{fill:#e2dcf1;}.cls-57{clip-path:url(#clip-path-23);}.cls-58{clip-path:url(#clip-path-24);}.cls-59{fill:url(#linear-gradient-7);}.cls-60{fill:#fae146;}.cls-61{clip-path:url(#clip-path-25);}.cls-62{clip-path:url(#clip-path-26);}.cls-63{fill:url(#linear-gradient-8);}.cls-64{fill:#d2e1f5;}.cls-65{clip-path:url(#clip-path-27);}.cls-66{clip-path:url(#clip-path-28);}.cls-67{fill:url(#linear-gradient-9);}.cls-68{fill:#fbc508;}.cls-69{fill:#de7c18;}.cls-70{fill:#ffd63d;}.cls-71{fill:#b2164d;}.cls-72{fill:#db8d00;}.cls-73{fill:#f89a75;}.cls-74{fill:#ee8960;}.cls-75{fill:#db9963;}.cls-76{fill:#5a6699;}.cls-77{fill:#546b8e;}.cls-78{fill:#2b3950;}.cls-79{fill:#c2dde0;}.cls-80{fill:#e5f7fd;}.cls-81{fill:#e1e0de;}.cls-82{fill:#3e1f17;}.cls-83{fill:#6c341f;}.cls-84{fill:#cd6d49;}.cls-85{fill:#1e2a4c;}.cls-86{fill:#39477d;}.cls-87{fill:#283a75;}.cls-88{fill:#192341;}.cls-89{fill:#7b5b3f;}</style><clipPath id="clip-path"><rect class="cls-1" x="237.64" y="277.77" width="509.73" height="292.98"/></clipPath><clipPath id="clip-path-2"><path class="cls-1" d="M618.67,368.54l-.52-.31.45-.46C618.63,368,618.65,368.28,618.67,368.54Zm-4.52-24c1.21,4.32,2.2,8.67,3,13l-5.87-3.33c0-.3.06-.59.1-.87l1.81-5.7a4.21,4.21,0,0,1,.21-.83l.69-2.43A.17.17,0,0,1,614.15,344.5Zm-23.66-2.22-54.86-31.41,0-33a30.5,30.5,0,0,1,8.79,3.3l49.1,28.35A60.44,60.44,0,0,0,590,331Q590.12,336.61,590.49,342.28ZM239.59,448q-5-9.39,15.36-23.07a104.26,104.26,0,0,0,12.44-6.39l33.4-19.28A198.85,198.85,0,0,0,320,416.11l-5.59,3.22a115.68,115.68,0,0,0-16.54,11.05q-7.57,6.33-5.42,9.87a4.57,4.57,0,0,0,1.81,1.67l90.2,51.76q7.63,4.31,28.55-5.83,4.88-2.5,10.49-5.77l3.76-2.16,63.79,36.83a2.27,2.27,0,0,1,.56.42q9,4.86,16.81.14h-.14L540,499q4.54.2,11.5-3.75l58.79-33.7a37.65,37.65,0,0,0,4.93-3.48c1.31-1.24,1.82-2.36,1.53-3.33l61.78-35.65q6.74-3.89,5.14-8.54a5.7,5.7,0,0,0-1.11-3.48c0-1.2-1.15-2.43-3.41-3.68L638.2,379.8q-.47-4.77-.77-9.6a153.57,153.57,0,0,0-4.31-26.68,14.36,14.36,0,0,1-.35-5.41c.22-1.87.45-3.73.7-5.6l106.6,61.6a17.83,17.83,0,0,1,5.9,5.35,8.61,8.61,0,0,1,.42,8.34,7.08,7.08,0,0,1-.42.83q-4.51,8.36-23.07,19L499.7,556.5q-15.92,9.16-28.7,12.36-17.58,4.53-29.46-2.43h-.14L245.78,453.59a16.41,16.41,0,0,1-6.19-5.56"/></clipPath><clipPath id="clip-path-3"><rect class="cls-1" x="196.99" y="169.69" width="589.67" height="510.33" transform="translate(-146.58 303.08) rotate(-30.02)"/></clipPath><linearGradient id="linear-gradient" x1="-1.39" y1="-216.52" x2="0.7" y2="-216.52" gradientTransform="matrix(-122.28, -211.58, -211.59, 122.28, -45364.11, 26826.19)" gradientUnits="userSpaceOnUse"><stop offset="0" stop-color="#edf9fd"/><stop offset="0.25" stop-color="#edf9fd"/><stop offset="0.28" stop-color="#edf9fd"/><stop offset="0.3" stop-color="#edf9fd"/><stop offset="0.3" stop-color="#edf9fd"/><stop offset="0.31" stop-color="#ecf9fd"/><stop offset="0.33" stop-color="#ebf9fd"/><stop offset="0.34" stop-color="#ebf8fd"/><stop offset="0.34" stop-color="#ebf8fd"/><stop offset="0.35" stop-color="#eaf8fd"/><stop offset="0.36" stop-color="#e9f8fd"/><stop offset="0.37" stop-color="#e9f8fd"/><stop offset="0.38" stop-color="#e8f8fd"/><stop offset="0.38" stop-color="#e8f7fd"/><stop offset="0.38" stop-color="#e7f7fd"/><stop offset="0.39" stop-color="#e7f7fc"/><stop offset="0.39" stop-color="#e5f7fc"/><stop offset="0.4" stop-color="#e5f7fc"/><stop offset="0.41" stop-color="#e5f7fc"/><stop offset="0.42" stop-color="#e4f7fc"/><stop offset="0.44" stop-color="#e3f6fc"/><stop offset="0.44" stop-color="#e2f6fc"/><stop offset="0.45" stop-color="#e2f6fc"/><stop offset="0.45" stop-color="#e2f6fc"/><stop offset="0.47" stop-color="#e1f6fc"/><stop offset="0.47" stop-color="#e0f5fb"/><stop offset="0.48" stop-color="#dff5fb"/><stop offset="0.48" stop-color="#dff5fb"/><stop offset="0.5" stop-color="#dff5fb"/><stop offset="0.51" stop-color="#def4fb"/><stop offset="0.52" stop-color="#ddf4fb"/><stop offset="0.52" stop-color="#ddf4fb"/><stop offset="0.52" stop-color="#dcf4fb"/><stop offset="0.53" stop-color="#dcf3fb"/><stop offset="0.53" stop-color="#dbf3fb"/><stop offset="0.54" stop-color="#dbf3fb"/><stop offset="0.54" stop-color="#dbf3fb"/><stop offset="0.55" stop-color="#daf3fb"/><stop offset="0.55" stop-color="#daf3fa"/><stop offset="0.56" stop-color="#d9f3fa"/><stop offset="0.57" stop-color="#d8f3fa"/><stop offset="0.57" stop-color="#d7f2fa"/><stop offset="0.58" stop-color="#d7f2fa"/><stop offset="0.59" stop-color="#d6f2fa"/><stop offset="0.59" stop-color="#d6f2fa"/><stop offset="0.6" stop-color="#d5f2fa"/><stop offset="0.61" stop-color="#d5f1fa"/><stop offset="0.62" stop-color="#d4f1f9"/><stop offset="0.62" stop-color="#d3f1f9"/><stop offset="0.63" stop-color="#d3f1f9"/><stop offset="0.64" stop-color="#d3f1f9"/><stop offset="0.64" stop-color="#d2f0f9"/><stop offset="0.65" stop-color="#d2f0f9"/><stop offset="0.66" stop-color="#d2f0f9"/><stop offset="0.67" stop-color="#d1f0f9"/><stop offset="0.68" stop-color="#d0f0f9"/><stop offset="0.69" stop-color="#cff0f9"/><stop offset="0.7" stop-color="#cfeff9"/><stop offset="0.72" stop-color="#ceeff9"/><stop offset="0.73" stop-color="#cdeff9"/><stop offset="0.75" stop-color="#cceff9"/><stop offset="0.88" stop-color="#cceff9"/><stop offset="1" stop-color="#cceef9"/></linearGradient><clipPath id="clip-path-4"><rect class="cls-1" x="130.43" y="35.32" width="616.94" height="543.49"/></clipPath><clipPath id="clip-path-5"><rect class="cls-1" x="291.65" y="309.74" width="326.6" height="130.55"/></clipPath><clipPath id="clip-path-6"><path class="cls-1" d="M590.77,346.09l-55.14-31.5v-3.72l54.86,31.41C590.57,343.55,590.66,344.82,590.77,346.09Zm20.5,8.1,5.87,3.33c.24,1.34.46,2.67.66,4l-6.36-3.65c-.05-.51-.1-1-.14-1.56A13.7,13.7,0,0,1,611.27,354.19ZM320,416.11l2.75,2.08-8.34,4.75A114.75,114.75,0,0,0,297.9,434q-4.31,3.54-5.42,6.25-2.16-3.56,5.42-9.87a115.68,115.68,0,0,1,16.54-11.05l5.59-3.22"/></clipPath><clipPath id="clip-path-7"><rect class="cls-1" x="291.04" y="310.85" width="326.77" height="129.42"/></clipPath><linearGradient id="linear-gradient-2" x1="0.97" y1="-215.96" x2="1.96" y2="-215.96" gradientTransform="matrix(-328.62, 0, 0, 328.6, 935.14, 71340.7)" gradientUnits="userSpaceOnUse"><stop offset="0" stop-color="#59c7f0"/><stop offset="0.13" stop-color="#59c7f0"/><stop offset="0.19" stop-color="#59c7f0"/><stop offset="0.2" stop-color="#59c7f0"/><stop offset="0.21" stop-color="#5ac8f0"/><stop offset="0.21" stop-color="#5cc9f0"/><stop offset="0.21" stop-color="#5dcaf0"/><stop offset="0.22" stop-color="#5ecbf0"/><stop offset="0.22" stop-color="#60cbf0"/><stop offset="0.23" stop-color="#61ccf0"/><stop offset="0.23" stop-color="#64cdef"/><stop offset="0.23" stop-color="#67ceef"/><stop offset="0.24" stop-color="#68cfef"/><stop offset="0.24" stop-color="#6acfef"/><stop offset="0.25" stop-color="#6ccfee"/><stop offset="0.25" stop-color="#6fd0ee"/><stop offset="0.25" stop-color="#71d1ee"/><stop offset="0.26" stop-color="#73d2ee"/><stop offset="0.26" stop-color="#75d2ee"/><stop offset="0.27" stop-color="#78d3ee"/><stop offset="0.27" stop-color="#7ad4ee"/><stop offset="0.27" stop-color="#7dd5ee"/><stop offset="0.28" stop-color="#80d6ee"/><stop offset="0.28" stop-color="#83d7ee"/><stop offset="0.29" stop-color="#85d7ee"/><stop offset="0.29" stop-color="#88d8ee"/><stop offset="0.29" stop-color="#8bd9ee"/><stop offset="0.3" stop-color="#8fdaef"/><stop offset="0.3" stop-color="#91dbef"/><stop offset="0.3" stop-color="#93dcef"/><stop offset="0.31" stop-color="#97ddef"/><stop offset="0.31" stop-color="#9adef0"/><stop offset="0.32" stop-color="#9ddff0"/><stop offset="0.32" stop-color="#a1e0f0"/><stop offset="0.32" stop-color="#a4e1f0"/><stop offset="0.33" stop-color="#a7e2f1"/><stop offset="0.33" stop-color="#a9e3f1"/><stop offset="0.34" stop-color="#ace4f1"/><stop offset="0.34" stop-color="#b0e5f1"/><stop offset="0.34" stop-color="#b3e6f1"/><stop offset="0.35" stop-color="#b6e7f2"/><stop offset="0.35" stop-color="#b9e8f3"/><stop offset="0.36" stop-color="#b9e8f3"/><stop offset="0.38" stop-color="#bae8f3"/><stop offset="0.5" stop-color="#bae8f3"/><stop offset="1" stop-color="#bae8f3"/></linearGradient><clipPath id="clip-path-8"><rect class="cls-1" x="612.69" y="454.01" width="4.17" height="4.17"/></clipPath><clipPath id="clip-path-9"><path class="cls-1" d="M615.19,458.1l-2.12-1.21,3.65-2.12c.29,1-.22,2.09-1.53,3.33"/></clipPath><clipPath id="clip-path-10"><rect class="cls-1" x="208.34" y="105.19" width="476.62" height="415.03"/></clipPath><clipPath id="clip-path-11"><path class="cls-1" d="M365.79,108.07l4.38-2.54v4.21l-4.38,2.54ZM340.15,429.69l-1.32-.77-.55-.27-2.3-1.39a.41.41,0,0,1-.28-.15c-.64-.41-1.28-.82-1.91-1.25q-5.7-3.72-11-7.67L320,416.11a198.85,198.85,0,0,1-19.24-16.82q-5-5-9.56-10.32c-.45-.53-.89-1.06-1.32-1.6-.78-.93-1.55-1.87-2.3-2.81q-3.58-4.49-6.87-9.17A173.25,173.25,0,0,1,267,352a11.09,11.09,0,0,0-.7-1.74V350l-30.09-74.31L227.78,255l-14.45-35.75L210.41,212q-4.86-12.09,5-17.09h-.14l93.26-53.83,38.67-22.3,3.65,2.12L222.08,195.17q-5.42,3.27-2.57,10.57l55.74,138.13q21.12,44.89,67.54,74.49l2.29,1.46h.14l152.67,88.11H498q6.33,3.68,11.89.55L680,410.3c1.75-1.05,2.6-2.11,2.58-3.2a5.7,5.7,0,0,1,1.11,3.48q1.59,4.67-5.14,8.54l-61.78,35.65-3.65,2.12L540,499l-31.66,18.28h.14q-7.84,4.73-16.81-.14a2.27,2.27,0,0,0-.56-.42l-63.79-36.83-6.88-4-4.52-2.6-3.78-2.19-4-2.29-4.49-2.57-12.29-7.09-3.69-2.12L375.42,450l-3.51-2-12.72-7.34-19-11"/></clipPath><clipPath id="clip-path-12"><rect class="cls-1" x="135.42" y="13.95" width="621.02" height="598.1" transform="translate(-96.75 264.89) rotate(-30)"/></clipPath><linearGradient id="linear-gradient-3" x1="1.88" y1="-218.1" x2="3.36" y2="-218.1" gradientTransform="matrix(201.55, 349.06, 349.08, -201.54, 76055.38, -44558.22)" gradientUnits="userSpaceOnUse"><stop offset="0" stop-color="#141b33"/><stop offset="0.25" stop-color="#141b33"/><stop offset="0.38" stop-color="#141b33"/><stop offset="0.39" stop-color="#141b33"/><stop offset="0.4" stop-color="#141b33"/><stop offset="0.4" stop-color="#141b35"/><stop offset="0.41" stop-color="#151c36"/><stop offset="0.41" stop-color="#171f3c"/><stop offset="0.41" stop-color="#1a2243"/><stop offset="0.42" stop-color="#1b274a"/><stop offset="0.42" stop-color="#1d2c51"/><stop offset="0.43" stop-color="#1e3259"/><stop offset="0.43" stop-color="#203760"/><stop offset="0.43" stop-color="#233e67"/><stop offset="0.44" stop-color="#26446e"/><stop offset="0.44" stop-color="#2a4c75"/><stop offset="0.45" stop-color="#2e547d"/><stop offset="0.45" stop-color="#315c84"/><stop offset="0.45" stop-color="#35638b"/><stop offset="0.46" stop-color="#396b91"/><stop offset="0.46" stop-color="#3d7497"/><stop offset="0.46" stop-color="#417c9d"/><stop offset="0.47" stop-color="#4584a4"/><stop offset="0.47" stop-color="#498ca9"/><stop offset="0.48" stop-color="#4e93af"/><stop offset="0.48" stop-color="#529cb5"/><stop offset="0.48" stop-color="#57a5bb"/><stop offset="0.49" stop-color="#5badc0"/><stop offset="0.49" stop-color="#5fb4c5"/><stop offset="0.5" stop-color="#5fb5c6"/><stop offset="0.5" stop-color="#60b6c6"/><stop offset="1" stop-color="#60b6c6"/></linearGradient><clipPath id="clip-path-13"><rect class="cls-1" x="259.28" y="8.96" width="321.05" height="470.96"/></clipPath><clipPath id="clip-path-14"><rect class="cls-1" x="308.33" y="84.61" width="1.39" height="1.13"/></clipPath><clipPath id="clip-path-15"><path class="cls-1" d="M309.71,85.38a6.32,6.32,0,0,1-.83-.34L309,85l.76.41"/></clipPath><clipPath id="clip-path-16"><rect class="cls-1" x="289.6" y="212.2" width="1.33" height="1.62"/></clipPath><clipPath id="clip-path-17"><polygon class="cls-1" points="290.71 212.4 289.84 213.79 289.84 213.73 290.71 212.4"/></clipPath><clipPath id="clip-path-18"><polygon class="cls-1" points="289.46 213.66 290.63 214.06 291.1 212.54 289.92 212.14 289.46 213.66"/></clipPath><linearGradient id="linear-gradient-4" x1="-5.4" y1="-219.88" x2="-5.38" y2="-219.88" gradientTransform="matrix(20.46, -66.43, -65.76, -22.66, -14058.73, -5128.21)" gradientUnits="userSpaceOnUse"><stop offset="0" stop-color="#a73020"/><stop offset="0.5" stop-color="#a73020"/><stop offset="1" stop-color="#a72f20"/></linearGradient><clipPath id="clip-path-19"><rect class="cls-1" x="457.31" y="77.32" width="78.38" height="154.53"/></clipPath><clipPath id="clip-path-20"><path class="cls-1" d="M535.7,211.64c-.15.71-.84,1.42-2.09,2.15l-3.23,1.88L535,198.92l.6.07v6.26a1.86,1.86,0,0,1,.07.34v.08a1.87,1.87,0,0,1-.07.34l.07-.07v1.25l-.07,3.76c0,.09,0,.18.07.28Zm-44.48,20.22-8.75-5-5.84-6.05V188.08l.07-.06v-.08a.69.69,0,0,0-.07-.34v-.21c-.14-.7-.86-1.41-2.16-2.15L465,179.68H465l-7.71-4.45V77.32c0,.61.7,1.33,2.08,2.16l13.07,7.43-.07.07,2.92,1.74h.07l16.95,9.8a8.11,8.11,0,0,0,8.48-.07l32.73-18.9.11-.07L491.22,231.86"/></clipPath><linearGradient id="linear-gradient-5" x1="1.18" y1="-223.99" x2="2.17" y2="-223.99" gradientTransform="matrix(79.22, 0, 0, -79.21, 363.78, -17588.54)" gradientUnits="userSpaceOnUse"><stop offset="0" stop-color="#628dd0"/><stop offset="0.25" stop-color="#628dd0"/><stop offset="0.31" stop-color="#628dd0"/><stop offset="0.34" stop-color="#628dd0"/><stop offset="0.35" stop-color="#638dd1"/><stop offset="0.35" stop-color="#648ed1"/><stop offset="0.36" stop-color="#658fd2"/><stop offset="0.36" stop-color="#6590d2"/><stop offset="0.37" stop-color="#6691d2"/><stop offset="0.37" stop-color="#6792d3"/><stop offset="0.38" stop-color="#6893d4"/><stop offset="0.38" stop-color="#6993d4"/><stop offset="0.38" stop-color="#6a94d4"/><stop offset="0.39" stop-color="#6b95d4"/><stop offset="0.39" stop-color="#6d96d5"/><stop offset="0.39" stop-color="#6e97d6"/><stop offset="0.4" stop-color="#6f98d6"/><stop offset="0.4" stop-color="#6f99d7"/><stop offset="0.41" stop-color="#709ad7"/><stop offset="0.41" stop-color="#719bd8"/><stop offset="0.41" stop-color="#719bd8"/><stop offset="0.42" stop-color="#729dd9"/><stop offset="0.42" stop-color="#739ed9"/><stop offset="0.43" stop-color="#749fda"/><stop offset="0.43" stop-color="#759fda"/><stop offset="0.43" stop-color="#76a0da"/><stop offset="0.44" stop-color="#77a1db"/><stop offset="0.44" stop-color="#78a2dc"/><stop offset="0.45" stop-color="#78a3dc"/><stop offset="0.45" stop-color="#79a5dd"/><stop offset="0.45" stop-color="#7aa6dd"/><stop offset="0.46" stop-color="#7ca7de"/><stop offset="0.46" stop-color="#7da8de"/><stop offset="0.46" stop-color="#7ea9df"/><stop offset="0.47" stop-color="#7faadf"/><stop offset="0.47" stop-color="#80abdf"/><stop offset="0.48" stop-color="#82ace0"/><stop offset="0.48" stop-color="#83ade0"/><stop offset="0.48" stop-color="#84ade1"/><stop offset="0.49" stop-color="#85aee1"/><stop offset="0.49" stop-color="#85afe1"/><stop offset="0.5" stop-color="#87b0e1"/><stop offset="0.5" stop-color="#88b1e2"/><stop offset="0.5" stop-color="#89b2e2"/><stop offset="0.51" stop-color="#8ab3e3"/><stop offset="0.51" stop-color="#8bb3e3"/><stop offset="0.52" stop-color="#8cb4e4"/><stop offset="0.52" stop-color="#8db5e4"/><stop offset="0.52" stop-color="#8eb6e4"/><stop offset="0.53" stop-color="#8fb7e5"/><stop offset="0.53" stop-color="#90b7e5"/><stop offset="0.54" stop-color="#91b8e5"/><stop offset="0.54" stop-color="#92b9e6"/><stop offset="0.54" stop-color="#93bae6"/><stop offset="0.55" stop-color="#94bbe6"/><stop offset="0.55" stop-color="#95bbe7"/><stop offset="0.55" stop-color="#96bce7"/><stop offset="0.56" stop-color="#97bde7"/><stop offset="0.56" stop-color="#98bee8"/><stop offset="0.57" stop-color="#99bee8"/><stop offset="0.57" stop-color="#9abfe8"/><stop offset="0.57" stop-color="#9bc0e9"/><stop offset="0.58" stop-color="#9cc1e9"/><stop offset="0.59" stop-color="#9cc1e9"/><stop offset="0.63" stop-color="#9cc1e9"/><stop offset="0.75" stop-color="#9cc1e9"/><stop offset="1" stop-color="#9cc1e9"/></linearGradient><clipPath id="clip-path-21"><rect class="cls-1" x="476.63" y="198.99" width="59.31" height="146.47"/></clipPath><clipPath id="clip-path-22"><path class="cls-1" d="M482.47,226.86l8.75,5-.9,3.2Zm53.23-15.63c0-.1-.05-.19-.07-.28l.07-3.76Zm0-5.56v.27l-.07.07A1.87,1.87,0,0,0,535.7,205.67Zm0-6.68v6.6a1.86,1.86,0,0,0-.07-.34V199Zm-.07,115.6v1.83a1.13,1.13,0,0,1,0,.77l.07-.07-.07,5c.32.92-.35,1.87-2,2.84L500.88,343.8a7.75,7.75,0,0,1-8.48-.07l-15.77-9V282l.07-5.91-.07.07a1.1,1.1,0,0,0,0-.76v-4.1l18.62,19.18,12.16,7.43,23-82.27,3.23-1.88c1.25-.73,1.94-1.44,2.09-2.15l0,66.19,0,33v3.72"/></clipPath><linearGradient id="linear-gradient-6" x1="1.42" y1="-223.99" x2="2.17" y2="-223.99" gradientTransform="matrix(79.22, 0, 0, -79.21, 363.78, -17471.12)" gradientUnits="userSpaceOnUse"><stop offset="0" stop-color="#628dd0"/><stop offset="0.13" stop-color="#628dd0"/><stop offset="0.13" stop-color="#628dd0"/><stop offset="0.13" stop-color="#638dd0"/><stop offset="0.14" stop-color="#638ed1"/><stop offset="0.14" stop-color="#648fd2"/><stop offset="0.15" stop-color="#6590d2"/><stop offset="0.15" stop-color="#6691d2"/><stop offset="0.16" stop-color="#6691d3"/><stop offset="0.16" stop-color="#6792d3"/><stop offset="0.17" stop-color="#6893d3"/><stop offset="0.17" stop-color="#6993d4"/><stop offset="0.18" stop-color="#6a93d4"/><stop offset="0.18" stop-color="#6a94d4"/><stop offset="0.18" stop-color="#6b95d4"/><stop offset="0.19" stop-color="#6c96d5"/><stop offset="0.19" stop-color="#6d97d5"/><stop offset="0.2" stop-color="#6e97d6"/><stop offset="0.2" stop-color="#6e98d6"/><stop offset="0.2" stop-color="#6f98d6"/><stop offset="0.21" stop-color="#7099d7"/><stop offset="0.21" stop-color="#709ad7"/><stop offset="0.21" stop-color="#709bd7"/><stop offset="0.22" stop-color="#719bd8"/><stop offset="0.22" stop-color="#719cd8"/><stop offset="0.23" stop-color="#729cd8"/><stop offset="0.23" stop-color="#739dd9"/><stop offset="0.23" stop-color="#739eda"/><stop offset="0.24" stop-color="#749fda"/><stop offset="0.24" stop-color="#759fda"/><stop offset="0.25" stop-color="#76a0db"/><stop offset="0.25" stop-color="#76a1db"/><stop offset="0.25" stop-color="#77a1db"/><stop offset="0.26" stop-color="#78a2db"/><stop offset="0.26" stop-color="#79a3dc"/><stop offset="0.27" stop-color="#79a4dc"/><stop offset="0.27" stop-color="#7aa5dd"/><stop offset="0.27" stop-color="#7aa6dd"/><stop offset="0.28" stop-color="#7ca7de"/><stop offset="0.28" stop-color="#7da7de"/><stop offset="0.29" stop-color="#7ea8df"/><stop offset="0.29" stop-color="#7ea9df"/><stop offset="0.29" stop-color="#7faadf"/><stop offset="0.3" stop-color="#80aadf"/><stop offset="0.3" stop-color="#81abe0"/><stop offset="0.3" stop-color="#82ace0"/><stop offset="0.31" stop-color="#83ade0"/><stop offset="0.32" stop-color="#84ade1"/><stop offset="0.32" stop-color="#85aee1"/><stop offset="0.32" stop-color="#86afe1"/><stop offset="0.33" stop-color="#86b0e2"/><stop offset="0.33" stop-color="#87b1e2"/><stop offset="0.34" stop-color="#88b2e3"/><stop offset="0.34" stop-color="#89b2e3"/><stop offset="0.34" stop-color="#8ab2e3"/><stop offset="0.35" stop-color="#8ab3e3"/><stop offset="0.35" stop-color="#8bb4e3"/><stop offset="0.36" stop-color="#8cb5e3"/><stop offset="0.36" stop-color="#8db5e4"/><stop offset="0.36" stop-color="#8eb6e4"/><stop offset="0.37" stop-color="#8eb6e4"/><stop offset="0.37" stop-color="#8fb7e5"/><stop offset="0.38" stop-color="#90b7e5"/><stop offset="0.38" stop-color="#91b8e5"/><stop offset="0.39" stop-color="#92b9e6"/><stop offset="0.39" stop-color="#93bae6"/><stop offset="0.39" stop-color="#93bae6"/><stop offset="0.4" stop-color="#94bbe6"/><stop offset="0.4" stop-color="#95bbe7"/><stop offset="0.41" stop-color="#96bce7"/><stop offset="0.41" stop-color="#97bde7"/><stop offset="0.42" stop-color="#98bee8"/><stop offset="0.42" stop-color="#99bee8"/><stop offset="0.43" stop-color="#9abee8"/><stop offset="0.43" stop-color="#9bc0e9"/><stop offset="0.44" stop-color="#9cc1e9"/><stop offset="0.5" stop-color="#9cc1e9"/><stop offset="1" stop-color="#9cc1e9"/></linearGradient><clipPath id="clip-path-23"><rect class="cls-1" x="398.25" y="281.37" width="78.39" height="98.36"/></clipPath><clipPath id="clip-path-24"><path class="cls-1" d="M419.75,295,409,333.52l-1.32-.77a6.76,6.76,0,0,0-1.49-1.11l-7.92-4.59V281.37c0,.82.7,1.67,2.08,2.54Zm56.88,45.55v11.67l-22.24,13.13v8.06l-10.94,6.33L469.3,287l5.25-3a4.28,4.28,0,0,0,2.08-1.94v58.51"/></clipPath><linearGradient id="linear-gradient-7" x1="1.18" y1="-223.99" x2="2.17" y2="-223.99" gradientTransform="matrix(79.22, 0, 0, -79.21, 304.78, -17412.74)" gradientUnits="userSpaceOnUse"><stop offset="0" stop-color="#998ecf"/><stop offset="0.25" stop-color="#998ecf"/><stop offset="0.31" stop-color="#998ecf"/><stop offset="0.33" stop-color="#998ecf"/><stop offset="0.34" stop-color="#998fcf"/><stop offset="0.35" stop-color="#9a90cf"/><stop offset="0.35" stop-color="#9b90d0"/><stop offset="0.36" stop-color="#9c91d0"/><stop offset="0.36" stop-color="#9d92d1"/><stop offset="0.36" stop-color="#9e93d2"/><stop offset="0.37" stop-color="#9f94d2"/><stop offset="0.37" stop-color="#a094d2"/><stop offset="0.38" stop-color="#a195d2"/><stop offset="0.38" stop-color="#a296d2"/><stop offset="0.38" stop-color="#a397d3"/><stop offset="0.39" stop-color="#a498d3"/><stop offset="0.39" stop-color="#a699d4"/><stop offset="0.39" stop-color="#a79ad4"/><stop offset="0.4" stop-color="#a89bd5"/><stop offset="0.4" stop-color="#a99cd5"/><stop offset="0.41" stop-color="#aa9dd6"/><stop offset="0.41" stop-color="#ab9ed6"/><stop offset="0.41" stop-color="#ab9fd7"/><stop offset="0.42" stop-color="#aca0d7"/><stop offset="0.42" stop-color="#aca1d7"/><stop offset="0.43" stop-color="#ada2d7"/><stop offset="0.43" stop-color="#aea3d8"/><stop offset="0.43" stop-color="#aea3d8"/><stop offset="0.44" stop-color="#afa4d9"/><stop offset="0.44" stop-color="#b0a5da"/><stop offset="0.45" stop-color="#b1a6da"/><stop offset="0.45" stop-color="#b1a6da"/><stop offset="0.45" stop-color="#b2a7da"/><stop offset="0.46" stop-color="#b3a8db"/><stop offset="0.46" stop-color="#b4a9db"/><stop offset="0.46" stop-color="#b5aadc"/><stop offset="0.47" stop-color="#b6abdc"/><stop offset="0.47" stop-color="#b7acdd"/><stop offset="0.48" stop-color="#b8addd"/><stop offset="0.48" stop-color="#b9addd"/><stop offset="0.48" stop-color="#baaedd"/><stop offset="0.49" stop-color="#baafde"/><stop offset="0.49" stop-color="#bbb0de"/><stop offset="0.5" stop-color="#bbb0df"/><stop offset="0.5" stop-color="#bcb1df"/><stop offset="0.5" stop-color="#bdb2df"/><stop offset="0.51" stop-color="#beb3e0"/><stop offset="0.51" stop-color="#bfb4e0"/><stop offset="0.52" stop-color="#c0b5e0"/><stop offset="0.52" stop-color="#c0b6e0"/><stop offset="0.52" stop-color="#c1b7e1"/><stop offset="0.53" stop-color="#c2b8e1"/><stop offset="0.53" stop-color="#c3b8e2"/><stop offset="0.54" stop-color="#c4b9e2"/><stop offset="0.54" stop-color="#c5bae3"/><stop offset="0.54" stop-color="#c5bbe3"/><stop offset="0.55" stop-color="#c6bce3"/><stop offset="0.55" stop-color="#c7bce3"/><stop offset="0.55" stop-color="#c8bde4"/><stop offset="0.56" stop-color="#c9bee4"/><stop offset="0.56" stop-color="#cabfe5"/><stop offset="0.57" stop-color="#cac0e5"/><stop offset="0.57" stop-color="#cbc1e6"/><stop offset="0.57" stop-color="#ccc2e6"/><stop offset="0.58" stop-color="#cdc2e6"/><stop offset="0.59" stop-color="#cdc2e6"/><stop offset="0.63" stop-color="#cdc2e6"/><stop offset="0.75" stop-color="#cdc2e6"/><stop offset="1" stop-color="#cdc2e6"/></linearGradient><clipPath id="clip-path-25"><rect class="cls-1" x="329.94" y="334.35" width="67.54" height="88.45"/></clipPath><clipPath id="clip-path-26"><path class="cls-1" d="M397.48,341.51,375.8,419.82l-2.29,1.32-.46.24a7.64,7.64,0,0,1-8-.31l-33-18.83c-1.39-.84-2.08-1.69-2.08-2.57V334.35c0,.56.7,1.28,2.08,2.15l13,7.37v.07l2.93,1.74h.13l16.89,9.8a8.1,8.1,0,0,0,8.47-.07l24.05-13.9"/></clipPath><linearGradient id="linear-gradient-8" x1="1.18" y1="-223.99" x2="2.03" y2="-223.99" gradientTransform="matrix(79.22, 0, 0, -79.21, 236.41, -17364.77)" gradientUnits="userSpaceOnUse"><stop offset="0" stop-color="#f89c0f"/><stop offset="0.25" stop-color="#f89c0f"/><stop offset="0.38" stop-color="#f89c0f"/><stop offset="0.39" stop-color="#f89c0f"/><stop offset="0.39" stop-color="#f89c0f"/><stop offset="0.4" stop-color="#f89c0e"/><stop offset="0.4" stop-color="#f89d0e"/><stop offset="0.41" stop-color="#f89e0e"/><stop offset="0.41" stop-color="#f89f0e"/><stop offset="0.42" stop-color="#f8a00e"/><stop offset="0.43" stop-color="#f8a00e"/><stop offset="0.43" stop-color="#f8a20e"/><stop offset="0.44" stop-color="#f8a30d"/><stop offset="0.44" stop-color="#f8a30d"/><stop offset="0.45" stop-color="#f8a40d"/><stop offset="0.45" stop-color="#f8a50d"/><stop offset="0.46" stop-color="#f9a60d"/><stop offset="0.46" stop-color="#f9a70d"/><stop offset="0.46" stop-color="#f9a80c"/><stop offset="0.47" stop-color="#f9a80c"/><stop offset="0.48" stop-color="#f9a90c"/><stop offset="0.48" stop-color="#f9aa0c"/><stop offset="0.48" stop-color="#f9aa0c"/><stop offset="0.49" stop-color="#f9ab0c"/><stop offset="0.49" stop-color="#f9ac0c"/><stop offset="0.5" stop-color="#f9ad0c"/><stop offset="0.5" stop-color="#f9ad0b"/><stop offset="0.51" stop-color="#f9ae0b"/><stop offset="0.52" stop-color="#f9ae0b"/><stop offset="0.52" stop-color="#f9b00b"/><stop offset="0.52" stop-color="#f9b00b"/><stop offset="0.53" stop-color="#f9b10b"/><stop offset="0.53" stop-color="#fab20b"/><stop offset="0.54" stop-color="#fab20b"/><stop offset="0.54" stop-color="#fab30a"/><stop offset="0.55" stop-color="#fab40a"/><stop offset="0.55" stop-color="#fab50a"/><stop offset="0.55" stop-color="#fab60a"/><stop offset="0.56" stop-color="#fab70a"/><stop offset="0.57" stop-color="#fab80a"/><stop offset="0.57" stop-color="#fab90a"/><stop offset="0.57" stop-color="#fab90a"/><stop offset="0.58" stop-color="#faba0a"/><stop offset="0.58" stop-color="#fabb09"/><stop offset="0.59" stop-color="#fabc09"/><stop offset="0.59" stop-color="#fabc09"/><stop offset="0.59" stop-color="#fabd09"/><stop offset="0.6" stop-color="#fabe09"/><stop offset="0.6" stop-color="#fabf09"/><stop offset="0.61" stop-color="#fabf09"/><stop offset="0.61" stop-color="#fac008"/><stop offset="0.62" stop-color="#fbc108"/><stop offset="0.63" stop-color="#fbc208"/><stop offset="0.63" stop-color="#fbc308"/><stop offset="0.63" stop-color="#fbc408"/><stop offset="0.64" stop-color="#fbc507"/><stop offset="0.64" stop-color="#fbc607"/><stop offset="0.65" stop-color="#fbc607"/><stop offset="0.65" stop-color="#fac707"/><stop offset="0.66" stop-color="#fac807"/><stop offset="0.66" stop-color="#fac807"/><stop offset="0.66" stop-color="#fbc907"/><stop offset="0.67" stop-color="#fbc907"/><stop offset="0.69" stop-color="#fbc907"/><stop offset="0.75" stop-color="#fbc907"/><stop offset="1" stop-color="#fbc907"/></linearGradient><clipPath id="clip-path-27"><rect class="cls-1" x="398.25" y="187.94" width="78.47" height="107.05"/></clipPath><clipPath id="clip-path-28"><path class="cls-1" d="M476.63,188.08v32.73l-16.81-17.5a.07.07,0,0,0-.08-.08h-.07l-3.85-2.32,18.65-10.81A4.52,4.52,0,0,0,476.63,188.08ZM398.25,197v-9.07c0,.57.7,1.26,2.08,2.09l13.06,7.43-.06.07,3,1.67h.07l16.89,9.87a8.24,8.24,0,0,0,8.55-.07l2.39-1.39L419.75,295l-19.42-11.08c-1.38-.87-2.07-1.72-2.08-2.54V197Zm78.38,85a4.28,4.28,0,0,1-2.08,1.94l-5.25,3,5-18,2.3,2.36v4.1a1.1,1.1,0,0,1,0,.76l.07-.07-.07,5.91"/></clipPath><linearGradient id="linear-gradient-9" x1="1.18" y1="-223.99" x2="2.17" y2="-223.99" gradientTransform="matrix(79.22, 0, 0, -79.21, 304.78, -17501.82)" gradientUnits="userSpaceOnUse"><stop offset="0" stop-color="#998ecf"/><stop offset="0.25" stop-color="#998ecf"/><stop offset="0.31" stop-color="#998ecf"/><stop offset="0.33" stop-color="#998ecf"/><stop offset="0.34" stop-color="#998fcf"/><stop offset="0.35" stop-color="#9a90cf"/><stop offset="0.35" stop-color="#9c90d0"/><stop offset="0.36" stop-color="#9c91d0"/><stop offset="0.36" stop-color="#9d92d1"/><stop offset="0.36" stop-color="#9e93d2"/><stop offset="0.37" stop-color="#9f94d2"/><stop offset="0.37" stop-color="#a094d2"/><stop offset="0.38" stop-color="#a195d2"/><stop offset="0.38" stop-color="#a296d2"/><stop offset="0.38" stop-color="#a397d3"/><stop offset="0.39" stop-color="#a498d3"/><stop offset="0.39" stop-color="#a699d4"/><stop offset="0.39" stop-color="#a79ad4"/><stop offset="0.4" stop-color="#a89bd5"/><stop offset="0.4" stop-color="#a99dd5"/><stop offset="0.41" stop-color="#aa9ed6"/><stop offset="0.41" stop-color="#ab9fd6"/><stop offset="0.42" stop-color="#aca0d7"/><stop offset="0.42" stop-color="#ada1d7"/><stop offset="0.43" stop-color="#ada2d7"/><stop offset="0.43" stop-color="#aea3d8"/><stop offset="0.43" stop-color="#aea3d8"/><stop offset="0.44" stop-color="#afa4d9"/><stop offset="0.44" stop-color="#b0a5da"/><stop offset="0.45" stop-color="#b1a6da"/><stop offset="0.45" stop-color="#b1a7da"/><stop offset="0.45" stop-color="#b2a7da"/><stop offset="0.46" stop-color="#b3a8db"/><stop offset="0.46" stop-color="#b4a9db"/><stop offset="0.46" stop-color="#b5aadc"/><stop offset="0.47" stop-color="#b6abdc"/><stop offset="0.47" stop-color="#b7acdd"/><stop offset="0.48" stop-color="#b8addd"/><stop offset="0.48" stop-color="#b9addd"/><stop offset="0.48" stop-color="#baaedd"/><stop offset="0.49" stop-color="#baafde"/><stop offset="0.49" stop-color="#bbb0de"/><stop offset="0.5" stop-color="#bbb0df"/><stop offset="0.5" stop-color="#bcb1df"/><stop offset="0.5" stop-color="#bdb2df"/><stop offset="0.51" stop-color="#beb4e0"/><stop offset="0.51" stop-color="#bfb4e0"/><stop offset="0.52" stop-color="#c0b5e1"/><stop offset="0.52" stop-color="#c0b6e1"/><stop offset="0.52" stop-color="#c1b7e1"/><stop offset="0.53" stop-color="#c2b8e1"/><stop offset="0.53" stop-color="#c3b8e2"/><stop offset="0.54" stop-color="#c4b9e2"/><stop offset="0.54" stop-color="#c5bae3"/><stop offset="0.54" stop-color="#c6bbe3"/><stop offset="0.55" stop-color="#c7bce4"/><stop offset="0.55" stop-color="#c8bce4"/><stop offset="0.55" stop-color="#c9bde4"/><stop offset="0.56" stop-color="#c9bee4"/><stop offset="0.56" stop-color="#cac0e5"/><stop offset="0.57" stop-color="#cbc0e5"/><stop offset="0.57" stop-color="#ccc1e6"/><stop offset="0.57" stop-color="#cdc2e6"/><stop offset="0.58" stop-color="#cdc2e6"/><stop offset="0.59" stop-color="#cdc2e6"/><stop offset="0.63" stop-color="#cdc2e6"/><stop offset="0.75" stop-color="#cdc2e6"/><stop offset="1" stop-color="#cdc2e6"/></linearGradient></defs><g class="cls-2"><g class="cls-3"><g class="cls-4"><path class="cls-5" d="M365.11,791.65,874.28,497.41,619.71,56.93,110.54,351.16Z"/></g></g></g><g class="cls-6"><path class="cls-7" d="M269.2,117.66l-99.79,57.57q-37.87,22-29.25,43.08l80.88,201q3.61,8.46,11.68,10.07-14.73,2.14-19.81-10.07L132,218.31q-8.62-21.12,29.25-43.08L269.2,113ZM383.1,47.27l1.25-.73q22.51-13,34.47-10.69-10.5,1.51-26.34,10.69L383.1,52ZM239.59,448a16.41,16.41,0,0,0,6.19,5.56L441.4,566.43h.14q11.88,7,29.46,2.43,12.79-3.18,28.7-12.36L722.9,427.6q18.55-10.64,23.07-19a7.08,7.08,0,0,0,.42-.83q2.15,4.09-.42,9-4.44,8.48-23.07,19L499.7,564.56q-15.92,9.11-28.7,12.51-17.58,4.44-29.46-2.37l-195.76-113Q236,455.83,239.59,448"/></g><path class="cls-8" d="M457.31,91.84v31L426.74,46.54l-6.68,3.82h-.13l-4.94,3L383.1,71.66V52l9.38-5.42q15.84-9.18,26.34-10.69a5.8,5.8,0,0,1,1.24-.15q13.77-1.46,18.76,10.15Zm-227,325.55,1.47,3.34,58.09-33.36c.43.54.87,1.07,1.32,1.6q4.54,5.29,9.56,10.32l-33.4,19.28A104.26,104.26,0,0,1,255,425l-3.4,1.39c-.42.14-.79.28-1.12.42l-15.35,3h-.49a.84.84,0,0,0-.41-.14c-.37-.08-.72-.16-1-.2h-.42q-8.07-1.61-11.68-10.07l-80.88-201q-8.62-21.12,29.25-43.08l99.79-57.57V137L146.34,207.47l2.51,6.19,6.87,17.44,21.06,52.39,8.48,21.4,39,97.35,6.11,15.15"/><path class="cls-9" d="M289.91,387.37l-58.09,33.36-1.47-3.34,57.26-32.83C288.36,385.5,289.13,386.44,289.91,387.37Zm167.4-264.5v13L422.57,49.05l-.35.2-2.16,1.11,6.68-3.82,30.57,76.33"/><path class="cls-10" d="M272.36,144q-2.5,1-5.1,2.23A115.72,115.72,0,0,0,256,152l-1.95,1-105.2,60.67-2.51-6.19L269.2,137v1.74c0,2.31.49,3.78,1.46,4.38h.07Zm185-8.2v39.4l-6.25-3.62v.08l-9.46-5.42a8,8,0,0,0-8.61,0L428.16,169l-27.48-67.95q-3-7.23-8.41-4.1l-22.1,12.75v-4.21l-4.38,2.54V97.69l11.26-6.47a11.39,11.39,0,0,0,6.05-10.43V71.66L415,53.35l7.23-4.1.35-.2ZM347.2,118.77l-38.67,22.3a30.6,30.6,0,0,0-6.67-1.77,15.38,15.38,0,0,0-3.27-.34,35.11,35.11,0,0,0-4.13-.1l43.82-25.26,8.92,5.17"/><path class="cls-11" d="M230.35,417.39l-6.11-15.15q8-.56,21.54-7.09,4.86-2.5,10.57-5.77l24.39-14q3.28,4.68,6.87,9.17Zm-53.57-133.9a38.92,38.92,0,0,0,6.32-2.92L227.78,255l8.41,20.71-50.93,29.22ZM155.72,231.1l-6.87-17.44L254.05,153l1.95-1a115.72,115.72,0,0,1,11.26-5.69q2.6-1.22,5.1-2.23l5,2.85a1.08,1.08,0,0,0,.21.14c1,.46,2.43.14,4.38-1l12.47-7.18a35.11,35.11,0,0,1,4.13.1,15.38,15.38,0,0,1,3.27.34,30.6,30.6,0,0,1,6.67,1.77L215.27,194.9h.14q-9.85,5-5,17.09l2.92,7.22-13.41-7.71q-5.07-2.77-14.88,2.71L155.72,231.1"/><path class="cls-12" d="M213.33,219.21,227.78,255,183.1,280.57a38.92,38.92,0,0,1-6.32,2.92L155.72,231.1,185,214.21q9.81-5.49,14.88-2.71Zm67.41,156.18-24.39,14q-5.72,3.27-10.57,5.77-13.54,6.54-21.54,7.09l-39-97.35,50.93-29.22L266.28,350v.29A11.09,11.09,0,0,1,267,352a173.25,173.25,0,0,0,13.76,23.38"/><path class="cls-13" d="M535.63,315.8v-1.21l55.14,31.5c.19,2.24.42,4.47.69,6.71l-48.89-28.24a3.27,3.27,0,0,0,1.6-2.23c0-1-.83-2.06-2.64-3.13Zm75.81,42.07,6.36,3.65c.25,1.67.47,3.33.66,5,0,.42.09.84.14,1.25l-.45.46-6.09-3.51Q611.75,361.29,611.44,357.87ZM410.33,482.35l-3.47-2.21a4.68,4.68,0,0,0-3.75,0l-10.5,6.18c0,.09.15.25.42.49h.28L397,489a2.57,2.57,0,0,0,3.19,0l9.79-5.91c.61,0,1-.11,1-.35A2,2,0,0,1,410.33,482.35Zm-59.06-34.67a3.46,3.46,0,0,0-3.76,0l-10.14,5.42-.35.7a1.53,1.53,0,0,0,.35.69h.35l9.79,5.77a3.87,3.87,0,0,0,3.76,0l10-5.77a5.53,5.53,0,0,0,.35-.69c-.05,0-.17-.23-.35-.7Zm-7.16-13.89a4.94,4.94,0,0,0-4.17,0L322,444.28l-.83.27c0,.24.28.43.83.57l9.66,5.83h-.21a5.47,5.47,0,0,0,3.83,0v-.21l18.13-10.63a.65.65,0,0,0,.62-.35,3.82,3.82,0,0,1-.62-.07ZM329.24,435l-3.75-2.16h-.35a4.15,4.15,0,0,0-3.48,0H322l-9.87,5.7a4.71,4.71,0,0,1-1.25.56,3.6,3.6,0,0,1,.84.55l4,2.5a4.3,4.3,0,0,0,3.82-.27l9.66-5.84a4.5,4.5,0,0,0,.63-.49C329.73,435.59,329.52,435.41,329.24,435ZM420.41,476l6.88,4-3.76,2.16q-5.62,3.26-10.49,5.77-20.91,10.14-28.55,5.83l-90.2-51.76a4.57,4.57,0,0,1-1.81-1.67q1.11-2.72,5.42-6.25a114.75,114.75,0,0,1,16.54-11.06l8.34-4.75q5.31,3.94,11,7.67l-6.15,3.55a.6.6,0,0,0,.42.55l4,2.16h-.21a3.81,3.81,0,0,0,4,0l4.38-2.43,19,11-6.05,3.62h-.2a2,2,0,0,1-.77.27,1.29,1.29,0,0,0,1,.77l9.52,5.76a3.54,3.54,0,0,0,3.83,0l5.42-3.08,3.51,2-22.28,12.75c-.23.28-.34.46-.34.56a.28.28,0,0,1-.21.07c.14,0,.32.16.55.49l10.08,5.27v.35c1,.74,2.06.63,3.27-.35l21.19-12,3.69,2.12L368.78,471.8a.92.92,0,0,0-.35.76c0,.14.12.3.35.48v-.27l10.28,5.76v.21a3.36,3.36,0,0,0,3.62,0v-.21l21-12.22,4.49,2.57-5.6,3.12c-.32.38-.58.56-.76.56a1,1,0,0,0,.62.21h.14l3.13,2.36,6.43-4,3.78,2.19-6.53,3.72,3.13,1.45a1.68,1.68,0,0,0,.55.35,3.25,3.25,0,0,0,3.06-.14v-.21l4.31-2.57"/><path class="cls-14" d="M410.33,482.35a2,2,0,0,0,.7.35c-.09.24-.44.35-1,.35L400.19,489a2.57,2.57,0,0,1-3.19,0l-3.69-2.15H393c-.27-.24-.42-.4-.42-.49l10.5-6.18a4.68,4.68,0,0,1,3.75,0Zm-2.18-13.47,4,2.29-6.43,4-3.13-2.36h-.14a1,1,0,0,1-.62-.21c.18,0,.44-.18.76-.56Zm7.74,4.48,4.52,2.6-4.31,2.57v.21a3.25,3.25,0,0,1-3.06.14,1.68,1.68,0,0,1-.55-.35l-3.13-1.45Zm-12.23-7.05-21,12.22v.21a3.36,3.36,0,0,1-3.62,0v-.21l-10.28-5.76V473c-.23-.18-.35-.34-.35-.48a.92.92,0,0,1,.35-.76l22.59-12.58ZM375.42,450l12.26,7.09-21.19,12c-1.21,1-2.3,1.09-3.27.35v-.35l-10.08-5.27c-.23-.33-.41-.49-.55-.49a.28.28,0,0,0,.21-.07c0-.1.11-.28.34-.56Zm-24.15-2.33,10,5.42c.18.47.3.7.35.7a5.53,5.53,0,0,1-.35.69l-10,5.77a3.87,3.87,0,0,1-3.76,0l-9.79-5.77h-.35a1.53,1.53,0,0,1-.35-.69l.35-.7,10.14-5.42A3.46,3.46,0,0,1,351.27,447.68Zm7.92-7L371.91,448l-5.42,3.08a3.54,3.54,0,0,1-3.83,0l-9.52-5.76a1.29,1.29,0,0,1-1-.77,2,2,0,0,0,.77-.27h.2ZM329.24,435c.28.37.49.55.63.55a4.5,4.5,0,0,1-.63.49l-9.66,5.84a4.3,4.3,0,0,1-3.82.27l-4-2.5a3.6,3.6,0,0,0-.84-.55,4.71,4.71,0,0,0,1.25-.56l9.87-5.7h-.35a4.15,4.15,0,0,1,3.48,0h.35Zm14.87-1.25,9.31,5.9a3.82,3.82,0,0,0,.62.07.65.65,0,0,1-.62.35l-18.13,10.63V451a5.47,5.47,0,0,1-3.83,0h.21L322,445.12c-.55-.14-.83-.33-.83-.57l.83-.27,17.93-10.49A4.94,4.94,0,0,1,344.11,433.79Zm-4-4.1-4.38,2.43a3.81,3.81,0,0,1-4,0H332l-4-2.16a.6.6,0,0,1-.42-.55l6.15-3.55c.63.43,1.27.84,1.91,1.25a.41.41,0,0,0,.28.15l2.3,1.39.55.27,1.32.77"/><g class="cls-15"><g class="cls-16"><g class="cls-17"><path class="cls-18" d="M617.8,440.25V310.87H291.65V440.25Z"/></g></g></g><g class="cls-19"><g class="cls-20"><path class="cls-21" d="M617,458.1v-3.33h-4v3.34Z"/></g></g><path class="cls-22" d="M540,499l73.1-42.14,2.12,1.21a37.65,37.65,0,0,1-4.93,3.48l-58.79,33.7q-7,3.95-11.5,3.75"/><g class="cls-23"><g class="cls-24"><g class="cls-25"><path class="cls-26" d="M565.59-100.76l-537,310,298.8,517.49,537-310Z"/></g></g></g><path class="cls-27" d="M563.08,443,532.5,460.75a31.94,31.94,0,0,1,8.82,4.23l29.88-17.3Zm-16.89-9.73L495,463c1,.69,2.08,1.53,3.33,2.5s2.5,2.11,3.47,3l17-9.87-.07-.07L554.39,438ZM534.86,351l24.74-14.24L551.4,332l-23.34,13.55A27.06,27.06,0,0,1,534.86,351Zm-11.53,37.11h-.08q8.36,5,20.09,5.21t19.87-4.52q8.13-4.8,8.06-11.6a5,5,0,0,0-.13-1.19q-.71-6-8.34-10.56l.06-.07a36.53,36.53,0,0,0-12.22-4.59,69.68,69.68,0,0,0-7.78-.69,44,44,0,0,0-6.61.34A33.89,33.89,0,0,0,523,364.58q-8.13,4.73-8.06,11.33c0,.09,0,.16,0,.2Q515,383,523.33,388.07Zm12.85-7.37a.21.21,0,0,0-.07-.14c-2.13-1.25-3.19-2.75-3.19-4.52a4.62,4.62,0,0,1,2.43-4c.28-.14.49-.25.63-.34l.27-.14a14.61,14.61,0,0,1,7.3-1.6,16,16,0,0,1,7.09,1.74,5.15,5.15,0,0,1,.48.27.06.06,0,0,1,.07.07c2.09,1.25,3.15,2.74,3.2,4.45s-1,3.25-3.13,4.45l-.69.28a13.87,13.87,0,0,1-6.81,1.31A16.22,16.22,0,0,1,536.18,380.7Zm83.25,5.91.14-2-4.13.49,4.23-2.44A20.41,20.41,0,0,1,619.43,386.61Zm-6.15-9.73q-.64-6.09-1.22-12.16l6.09,3.51.52.31c.41,3.84.72,7.69.9,11.57l-5.91-3.44ZM466.35,469.36l35.57-20.49-.06-.08,2.22-1.31c-.89-.75-1.88-1.6-3-2.58q-2.08-1.8-3.41-3l-39.46,22.79Zm16.88,9.8,12-6.88a29.59,29.59,0,0,1-3.47-3.68,30.17,30.17,0,0,1-2-2.64l-14.66,8.47ZM463,448.24c-1.72-1.48-3-2.67-4-3.55L441.33,455l8.13,4.65,16.19-9.31A25.24,25.24,0,0,1,463,448.24Zm22-9.17L485,439l35.65-20.5-8.14-4.73L463,442.4c1.07.47,2.27,1,3.61,1.67a52.24,52.24,0,0,1,5.08,2.71Zm-6.81-17.44c-.42-.33-.84-.67-1.25-1.05a42.62,42.62,0,0,1-4.52-4.93l-48.58,28.14,8.06,4.66,35.59-20.57-.08-.07ZM319.3,337.83c-.46-.74-1-1.64-1.59-2.72a44.48,44.48,0,0,1-2.09-4.79q-5.14,3-10.15,6a31.6,31.6,0,0,1,5,6.67C313.39,341.26,316.34,339.54,319.3,337.83Zm-17.09.49q-5.15,3.12-10.29,6.1c1.35,2.28,2.83,4.59,4.45,6.95q4.65-2.7,9.38-5.56a22.38,22.38,0,0,1-1.53-2.7A30.31,30.31,0,0,1,302.21,338.32ZM294.5,303.5q-8.28,4.72-16.27,9.52,1.32,3.75,2.85,7.85,8-4.8,16.26-9.52a24.42,24.42,0,0,1-1.25-3.26Q295.05,305.24,294.5,303.5Zm-21.83-6.67q1.18,3.82,2.58,7.78,4.44-2.49,8.83-5.21a12.13,12.13,0,0,1-1-2.57c-.83-2.5-1.37-4.27-1.6-5.28C278.58,293.26,275.64,295,272.67,296.83Zm38.09-22.37q-13.14,7.5-26.06,15.21.69,1.45,1.53,3.69c.65,1.43,1.22,2.73,1.73,3.89q12.38-7.44,24.81-14.53a29.53,29.53,0,0,1-1.18-3.33C311.22,277.21,310.94,275.57,310.76,274.46Zm36.48,27.44q9-5.07,18-10.22-1.61-4-3.2-7.57-9.53,5.43-18.9,10.84A29.81,29.81,0,0,1,347.24,301.9Zm-19.95-17.65-28.21,16.4a19.87,19.87,0,0,1,2.85,4.45A15.72,15.72,0,0,1,303,308l16-9.45c3.52-2.09,7.1-4.12,10.71-6.12a12.75,12.75,0,0,1-1.18-3.13A35.83,35.83,0,0,1,327.29,284.25Zm10.85,13.41q-27.81,16-53.93,31.34c1.16,2.69,2.36,5.21,3.62,7.58q18.75-11.11,37.59-22.24,8.26-4.59,16.4-9.24c-.56-.88-1.11-1.88-1.67-3A37.86,37.86,0,0,1,338.14,297.66Zm1-39.6q-12.51,7.08-24.95,14.38c.56.92,1.23,2.2,2,3.83.64,1.33,1.15,2.47,1.53,3.4q11.73-6.68,23.7-13.35a23.14,23.14,0,0,1-1.26-3.89C339.64,260.45,339.29,259,339.11,258.06Zm16.54,10.21q-12.39,6.87-24.53,14A23.64,23.64,0,0,1,335,289.4L358.77,276Q357.11,272,355.65,268.27Zm-6.12-16.19c-2.27,1.3-4.57,2.58-6.88,3.82a79.35,79.35,0,0,1,3.2,7.86c2.17-1.35,4.4-2.65,6.67-3.9C351.54,257.22,350.55,254.62,349.53,252.08ZM558.14,408.91l-15.57,9,8.07,4.66,15.22-8.76Q561.12,410.86,558.14,408.91Zm-145.65-249q-12.37,6.88-24.53,14a23.49,23.49,0,0,1,3.89,7.16l23.76-13.42C414.5,165,413.46,162.44,412.49,159.94Zm-22.31-2.49q9-5.08,18-10.22c-1.07-2.69-2.13-5.21-3.2-7.58q-9.51,5.41-18.9,10.84A29.13,29.13,0,0,1,390.18,157.45Zm8.41-33.64q-12.36,6.87-24.53,14a23.49,23.49,0,0,1,3.89,7.16l23.77-13.42C400.61,128.88,399.56,126.31,398.59,123.81ZM343.28,236.24q-38.5,21.81-76.44,44.47,1.59,4,2.85,7.71,19-11.25,38.22-22.37v-.14q19-11,38.49-22.1A68.62,68.62,0,0,1,343.28,236.24Zm-12.51-44.12q18.76-11.12,37.6-22.24,8.25-4.59,16.39-9.25a33.16,33.16,0,0,1-1.66-3,36.63,36.63,0,0,1-2-4.45q-27.79,16-53.92,31.34C328.31,187.23,329.52,189.75,330.77,192.12Zm22.17,7.64q-1.05-2.85-1.6-4.59-8.28,4.72-16.26,9.52,1.32,3.75,2.85,7.85,8-4.78,16.26-9.52A22,22,0,0,1,352.94,199.76Zm6.94-.14,16-9.45q5.29-3.13,10.71-6.12a12.82,12.82,0,0,1-1.18-3.12,35.62,35.62,0,0,1-1.25-5l-28.22,16.4a19.87,19.87,0,0,1,2.85,4.45A15.56,15.56,0,0,1,359.88,199.62Zm-82.55-15.08a34.58,34.58,0,0,0-10.91,10.77,38.81,38.81,0,0,0-6,15.08l-.42-.07q-2.22,13.34,3.82,23.91a29,29,0,0,0,5.94,7.5l1.22,1,3.54,2.15a20.86,20.86,0,0,0,4.87,2.09,6.65,6.65,0,0,1,.83.2,26.6,26.6,0,0,0,14.52-.41l-.07-.07a29.15,29.15,0,0,0,8.21-4,36.48,36.48,0,0,0,14.38-18.69h.14a38.71,38.71,0,0,0,1.11-21.68,30.48,30.48,0,0,0-10.56-16.54l.34-.35a23.93,23.93,0,0,0-8.61-4.38,24.86,24.86,0,0,0-6.33-1.11,29,29,0,0,0-15.63,4.24l-.14.14a.58.58,0,0,1-.28.07ZM339,163.63q-1.05-2.85-1.6-4.59-8.28,4.72-16.26,9.52,1.32,3.75,2.85,7.85,8-4.8,16.26-9.52A23.12,23.12,0,0,1,339,163.63Zm6.94-.14L362,154c3.52-2.09,7.09-4.12,10.7-6.12a14,14,0,0,1-1.18-3.13,35.55,35.55,0,0,1-1.25-5Q356,148.06,342,156.19a20.76,20.76,0,0,1,2.85,4.44A16.06,16.06,0,0,1,346,163.49ZM378.44,295.3c1.39,2.27,2.89,4.59,4.52,6.95q4.1-2.43,8.19-4.79a11.25,11.25,0,0,1-1-2.09A45.88,45.88,0,0,0,388,289.6Q383.16,292.45,378.44,295.3ZM646.53,406.06l9-5.21-8.06-4.66-4.19,2.44a24,24,0,0,0-5.08-4.48c.11-.95.2-1.9.27-2.86l.32-.17-.28-.17a63.51,63.51,0,0,0-.14-9.83c0-.44-.09-.88-.13-1.32l40.92,23.62c2.26,1.25,3.39,2.48,3.41,3.68s-.83,2.15-2.58,3.2l-170,98.18q-5.57,3.13-11.89-.55h-.14L345.22,419.82h-.14l-2.29-1.46q-46.43-29.6-67.54-74.49L219.51,205.74q-2.85-7.31,2.57-10.57l128.77-74.28,14.94,8.62V112.28l4.38-2.54L392.27,97q5.42-3.12,8.41,4.1L428.16,169l-27.83,16c-1.3.8-2,1.58-2.08,2.37v8.68a25.36,25.36,0,0,1-1.25-2.29,37.35,37.35,0,0,1-2-4.44q-27.8,16-53.92,31.34c1.15,2.68,2.36,5.21,3.61,7.57q18.75-11.12,37.59-22.24,8.06-4.47,16-9V226.3L396.72,225a5.83,5.83,0,0,0,.14-4,5.68,5.68,0,0,0-3.13-3.89,6.55,6.55,0,0,0-5.36-.35,7.61,7.61,0,0,0-4.37,3.48,6.66,6.66,0,0,0-.77,5.21,6.09,6.09,0,0,0,3.2,4,7.57,7.57,0,0,1,1.25.49l.63,27.44a6.84,6.84,0,0,0-2.5,1.6l-15-8.13a5.16,5.16,0,0,0-.14-2.64,6.69,6.69,0,0,0-3.2-4,7.3,7.3,0,0,0-5.42-.42,7.74,7.74,0,0,0-4.31,3.47,6.77,6.77,0,0,0-.83,5.29,6.08,6.08,0,0,0,3.26,4,6.66,6.66,0,0,0,5.35.41,8.39,8.39,0,0,0,3.62-2.43l14.45,7.93a6.7,6.7,0,0,0,0,3.61,6.1,6.1,0,0,0,3.27,4,6.36,6.36,0,0,0,5.28.35,7.37,7.37,0,0,0,4.44-3.41,6.46,6.46,0,0,0,.7-5.35,6.26,6.26,0,0,0-5-4.52l-.56-27.3a7,7,0,0,0,2.64-1.33l3.9,3.42v51.76l-6.61,3.89q1.46,2.57,4,7.44c.87-.53,1.75-1.06,2.64-1.57V304l-9.74,5.83q2.85,3.48,5.71,6.95l4-2.4v12.68l-1.68-1h.08l-14-8.06v.07l-4.07-2.33-.73-.87-.38.22-4.2-2.44a8.25,8.25,0,0,0-8.62,0L332,331.5c-1.3.74-2,1.53-2.08,2.37v8.37q-14.47,8.44-28,16.71l5.7,6.81q11.16-6.6,22.31-13.23v11.11q-8,4.77-15.64,9.41,3.26,3.4,6.25,6.88c3.14-1.94,6.26-3.88,9.39-5.8v11.23c-.8.5-1.59,1-2.37,1.52l2.37,2.36V393l-7,4.07c-1.63.88-2.49,1.78-2.57,2.7a1.22,1.22,0,0,0-.08.7,5.25,5.25,0,0,0,2.65,2.58l40.16,23.06a9.86,9.86,0,0,0,10.43,0l3.82-2.22,24.39,14L448.07,411l-11.5-6.6,5.18-18.56.34-.21,12.3-7.19v7l-13.48,7.79,38.15,21.89.84-.49a39.82,39.82,0,0,1,4.58,3.47l18.62-10.77-5.27-3.06,18.62-10.77-13-7.47V369.16L524,357.28l-.07-.07,4.93-2.85c-1.15-.6-2.5-1.39-4-2.35s-2.88-1.65-3.9-2.3l-22.23,12.85L479,350.82l-2.36,1.39V340.54l14.18,8.13a9.84,9.84,0,0,0,10.42,0l20.71-12.09H522l3.76-2.09-.07-.07,15.84-9.17c.38-.23.73-.46,1-.69l48.89,28.24q.42,3.81,1,7.6,2.07,13.38,3.13,26.8l-1.12.65.8.35a44.28,44.28,0,0,0-11.36,4.52,27.74,27.74,0,0,0-6.46,4.9l-14.6,8.44c1,.42,2,.9,3.13,1.46,2.13,1.07,4,2.06,5.5,3l1.87-1.08a14.45,14.45,0,0,0,3.82,7.85L559.39,427.6l8.2,4.73,16.61-9.66a43.8,43.8,0,0,0,10.35,4.13l-18.2,10.53,8.06,4.72,23.14-13.4-.07,0c.8,0,1.62,0,2.43,0q15.23,0,25.92-6.12t10.77-14.94C646.6,407.08,646.58,406.56,646.53,406.06ZM533.12,466.65c-1.85-1.43-3.36-2.64-4.51-3.61L492,484.16l8.14,4.73,35.23-20.43Zm-23.77-22.16,28.15-16.27-8.2-4.72-27.73,16.12a33.27,33.27,0,0,1,3.27,1.74,28.54,28.54,0,0,1,4.51,3.13"/><path class="cls-28" d="M509.35,444.49a28.54,28.54,0,0,0-4.51-3.13,33.27,33.27,0,0,0-3.27-1.74L529.3,423.5l8.2,4.72Zm23.77,22.16,2.23,1.81-35.23,20.43L492,484.16,528.61,463C529.76,464,531.27,465.22,533.12,466.65Zm113.41-60.59a14.1,14.1,0,0,0-3.29-7.43l4.19-2.44,8.06,4.66Zm-52,20.74a58.7,58.7,0,0,0,12.93,1.81l.07,0-23.14,13.4-8.06-4.72ZM563.08,443l8.12,4.65L541.32,465a31.94,31.94,0,0,0-8.82-4.23Zm14.1-25.75a27.67,27.67,0,0,0,6.74,5.25l.28.14-16.61,9.66-8.2-4.73Zm-3.82-7.85-1.87,1.08c-1.53-.93-3.37-1.92-5.5-3-1.11-.56-2.15-1-3.13-1.46l14.6-8.44a14.12,14.12,0,0,0-4.24,10A12.35,12.35,0,0,0,573.36,409.43Zm-15.22-.52q3,1.95,7.72,4.86l-15.22,8.76-8.07-4.66Zm37.53-20.81-.39.1-.8-.35,1.12-.65C595.62,387.5,595.64,387.8,595.67,388.1ZM534.86,351a27.06,27.06,0,0,0-6.8-5.42L551.4,332l8.2,4.73Zm84.81,31.68-4.23,2.44-1.22.14c-.32-2.78-.64-5.56-.94-8.34l.38-.21,5.91,3.44c0,.68,0,1.36.07,2.05Zm18.8,8.31.28.17-.32.17C638.45,391.18,638.46,391.06,638.47,391ZM478.23,421.63l-10.78,6.18.08.07-35.59,20.57-8.06-4.66,48.58-28.14a42.62,42.62,0,0,0,4.52,4.93C477.39,421,477.81,421.3,478.23,421.63ZM485,439.07l-13.34,7.71a52.24,52.24,0,0,0-5.08-2.71c-1.34-.65-2.54-1.2-3.61-1.67l49.47-28.63,8.14,4.73L485,439Zm-22,9.17a25.24,25.24,0,0,0,2.64,2.08l-16.19,9.31L441.33,455,459,444.69C460,445.57,461.29,446.76,463,448.24Zm16.89-33.63,17.93-10.36,5.27,3.06-18.62,10.77A39.82,39.82,0,0,0,479.9,414.61Zm-150-29.25v3.88l-2.37-2.36C328.35,386.37,329.14,385.86,329.94,385.36Zm0-11.23c-3.13,1.92-6.25,3.86-9.39,5.8q-3-3.46-6.25-6.88,7.63-4.65,15.64-9.41ZM294.5,303.5q.56,1.74,1.59,4.59a24.42,24.42,0,0,0,1.25,3.26q-8.26,4.72-16.26,9.52-1.53-4.1-2.85-7.85Q286.24,308.22,294.5,303.5Zm7.71,34.82a30.31,30.31,0,0,0,2,4.79,22.38,22.38,0,0,0,1.53,2.7q-4.72,2.85-9.38,5.56c-1.62-2.36-3.1-4.67-4.45-6.95Q297.07,341.45,302.21,338.32Zm17.09-.49c-3,1.71-5.91,3.43-8.82,5.14a31.6,31.6,0,0,0-5-6.67q5-3,10.15-6a44.48,44.48,0,0,0,2.09,4.79C318.31,336.19,318.84,337.09,319.3,337.83Zm8-53.58a35.83,35.83,0,0,0,1.26,5,12.75,12.75,0,0,0,1.18,3.13c-3.61,2-7.19,4-10.71,6.12L303,308a15.72,15.72,0,0,0-1.11-2.85,19.87,19.87,0,0,0-2.85-4.45Zm19.95,17.65a29.81,29.81,0,0,0-4.1-6.95q9.38-5.42,18.9-10.84,1.59,3.56,3.2,7.57Q356.19,296.84,347.24,301.9Zm8.41-33.63q1.46,3.75,3.12,7.71L335,289.4a23.64,23.64,0,0,0-3.89-7.17Q343.27,275.15,355.65,268.27Zm21.85,46.84.38-.22.73.87Zm20.75-21.79c-.89.51-1.77,1-2.64,1.57q-2.52-4.87-4-7.44l6.61-3.89Zm-19.81,2q4.72-2.85,9.58-5.7a45.88,45.88,0,0,1,2.16,5.77,11.25,11.25,0,0,0,1,2.09q-4.09,2.35-8.19,4.79C381.33,299.89,379.83,297.57,378.44,295.3ZM398.25,304v10.38l-4,2.4q-2.87-3.47-5.71-6.95Zm.34-180.18c1,2.5,2,5.07,3.13,7.71L378,144.94a23.49,23.49,0,0,0-3.89-7.16Q386.23,130.69,398.59,123.81Zm-8.41,33.64a29.13,29.13,0,0,0-4.1-7q9.39-5.42,18.9-10.84c1.07,2.37,2.13,4.89,3.2,7.58Q399.15,152.38,390.18,157.45Zm22.31,2.49c1,2.5,2,5.08,3.12,7.71l-23.76,13.42a23.49,23.49,0,0,0-3.89-7.16Q400.11,166.82,412.49,159.94Zm-52.61,39.68a15.56,15.56,0,0,0-1.11-2.85,19.87,19.87,0,0,0-2.85-4.45l28.22-16.4a35.62,35.62,0,0,0,1.25,5,12.82,12.82,0,0,0,1.18,3.12q-5.42,3-10.71,6.12Zm-6.94.14a22,22,0,0,0,1.25,3.26q-8.28,4.74-16.26,9.52-1.53-4.09-2.85-7.85,8-4.8,16.26-9.52Q351.9,196.91,352.94,199.76Zm-7-36.27a16.06,16.06,0,0,0-1.1-2.86,20.76,20.76,0,0,0-2.85-4.44q14-8.13,28.21-16.4a35.55,35.55,0,0,0,1.25,5,14,14,0,0,0,1.18,3.13c-3.61,2-7.18,4-10.7,6.12Zm-6.94.14a23.12,23.12,0,0,0,1.25,3.26Q332,171.62,324,176.41q-1.53-4.09-2.85-7.85,8-4.78,16.26-9.52.56,1.74,1.6,4.59"/><g class="cls-29"><path class="cls-30" d="M546.51,433l8.2,4.65-35.65,20.56.07.08-17,9.86c-1-.88-2.14-1.87-3.48-3-1.25-1-2.36-1.81-3.33-2.5Zm16.62-67.9-11.61,6.61a.07.07,0,0,0-.08-.08,4.11,4.11,0,0,0-.48-.27,16.06,16.06,0,0,0-7.09-1.74,14.54,14.54,0,0,0-7.29,1.6l-.28.14c-.14.09-.35.21-.62.35l-12.38-7.44a33.77,33.77,0,0,1,13.28-4.17,43.86,43.86,0,0,1,6.6-.35,69.41,69.41,0,0,1,7.78.7A36.44,36.44,0,0,1,563.19,365ZM483.56,478.83l-8.14-4.73,14.67-8.48a28.1,28.1,0,0,0,2,2.64,28.94,28.94,0,0,0,3.48,3.68ZM330.26,341.9v10.29q-11.14,6.63-22.31,13.23l-5.7-6.81Q315.79,350.35,330.26,341.9Zm173.51,26.92V365l-24.52,14.39L454.72,365,477,351.87l2.35-1.39,19.74,11.75,22.24-12.86c1,.65,2.31,1.41,3.89,2.3s2.87,1.76,4,2.36l-4.94,2.85.07.06Zm-172.68-177q-1.87-3.54-3.61-7.58,26.13-15.34,53.92-31.33a37.35,37.35,0,0,0,2,4.44,32.31,32.31,0,0,0,1.67,3q-8.14,4.65-16.4,9.24Q349.85,180.65,331.09,191.78ZM260.7,210.05a.91.91,0,0,0,.06.35l28.92,3.33.06.07-21.61,25.58a24.39,24.39,0,0,0,1.91,2,28.71,28.71,0,0,1-5.93-7.5Q258,223.32,260.28,210Zm30.33,2,17.2-26.54a30.49,30.49,0,0,1,10.57,16.54,38.71,38.71,0,0,1-1.12,21.68h-.14l-27.45-9v-1l-.21-.06H290v-.22l.07.22.08-.22ZM309.2,84.7a7.48,7.48,0,0,0,.84.35l.27.14q4.11,2.57,4.1,9.24A28.52,28.52,0,0,1,310,108.88H310l-10.67-6h0l.07-.07V86.37l-.07-.21Q305,82.89,309.2,84.7ZM491.55,231.52,534,79.14l1.11-4,3.51-12.64,8.06,4.87.14.07.49.55-18,64.24a82.2,82.2,0,0,0-6,9q-9.45,16.4-9.45,31.83a35.75,35.75,0,0,0,1.29,10.1l-16.71,59.66-7.79-8.13ZM579.24,14.86,532,53.57l-9.66-5.84L569.58,9l9.66,5.9"/></g><path class="cls-31" d="M466.35,469.36l-8.13-4.65,39.46-22.79q1.32,1.18,3.41,3c1.11,1,2.1,1.83,3,2.58l-2.22,1.31.06.08ZM338.14,297.66a37.86,37.86,0,0,0,2,4.45c.56,1.11,1.11,2.11,1.67,3q-8.13,4.65-16.4,9.24-18.84,11.12-37.59,22.24c-1.26-2.37-2.46-4.89-3.62-7.58Q310.34,313.64,338.14,297.66Zm60.11-101.59V197q-7.94,4.53-16,9-18.84,11.12-37.59,22.24c-1.25-2.36-2.46-4.89-3.61-7.57q26.12-15.36,53.92-31.34a37.35,37.35,0,0,0,2,4.44,25.36,25.36,0,0,0,1.25,2.29"/><path class="cls-32" d="M343.28,236.24a68.62,68.62,0,0,0,3.12,7.57q-19.51,11.12-38.49,22.1v.14q-19.26,11.11-38.22,22.37-1.26-3.75-2.85-7.71,37.94-22.65,76.44-44.47"/><path class="cls-33" d="M310.76,274.46c.18,1.11.46,2.75.83,4.93a29.53,29.53,0,0,0,1.18,3.33q-12.45,7.09-24.81,14.53c-.51-1.16-1.08-2.46-1.73-3.89s-1.07-2.72-1.53-3.69Q297.62,282,310.76,274.46Zm-38.09,22.37c3-1.8,5.91-3.57,8.83-5.28.23,1,.77,2.78,1.6,5.28a12.13,12.13,0,0,0,1,2.57q-4.4,2.72-8.83,5.21Q273.86,300.65,272.67,296.83Zm66.44-38.77c.18.92.53,2.39,1,4.37a23.14,23.14,0,0,0,1.26,3.89q-12,6.68-23.7,13.35c-.38-.93-.89-2.07-1.53-3.4-.79-1.63-1.46-2.91-2-3.83Q326.59,265.15,339.11,258.06Zm10.42-6c1,2.54,2,5.14,3,7.78-2.27,1.25-4.5,2.55-6.67,3.9a79.35,79.35,0,0,0-3.2-7.86c2.31-1.24,4.61-2.52,6.88-3.82"/><path class="cls-34" d="M398.25,226.3v5.5l-3.9-3.42a7,7,0,0,1-2.64,1.33l.56,27.3a6.26,6.26,0,0,1,5,4.52,6.46,6.46,0,0,1-.7,5.35,7.37,7.37,0,0,1-4.44,3.41,6.36,6.36,0,0,1-5.28-.35,6.1,6.1,0,0,1-3.27-4,6.7,6.7,0,0,1,0-3.61l-14.45-7.93a8.39,8.39,0,0,1-3.62,2.43,6.66,6.66,0,0,1-5.35-.41,6.08,6.08,0,0,1-3.26-4,6.77,6.77,0,0,1,.83-5.29,7.74,7.74,0,0,1,4.31-3.47,7.3,7.3,0,0,1,5.42.42,6.69,6.69,0,0,1,3.2,4,5.16,5.16,0,0,1,.14,2.64l15,8.13a6.84,6.84,0,0,1,2.5-1.6l-.63-27.44a7.57,7.57,0,0,0-1.25-.49,6.09,6.09,0,0,1-3.2-4,6.66,6.66,0,0,1,.77-5.21,7.61,7.61,0,0,1,4.37-3.48,6.55,6.55,0,0,1,5.36.35,5.68,5.68,0,0,1,3.13,3.89,5.83,5.83,0,0,1-.14,4l1.53,1.32"/><path class="cls-35" d="M321.74,101.36,352.31,84V78.71L321.74,96.16Zm49.68-53.78L322,75.86v5.36L371.42,52.8Zm0,10.64L322,86.5v5.28l49.47-28.36ZM309.71,85.38,309,85l-.07.07q-4.17-1.82-9.94,1.46l.08.21A29.59,29.59,0,0,0,288.59,97.4q-4.38,7.38-4.31,14.32-.07,6.73,4,9.24a2.06,2.06,0,0,1,.42.21l.07-.07q4.31,2.16,10.42-1.18a28.76,28.76,0,0,0,10.49-10.7h.07a28.46,28.46,0,0,0,4.38-14.45q0-6.67-4.1-9.25ZM383.1,47.27V80.79a11.39,11.39,0,0,1-6.05,10.43l-11.26,6.47v31.82l-14.94-8.62-3.65-2.12-8.92-5.17-43.82,25.26L282,146c-1.95,1.12-3.41,1.44-4.38,1a1.08,1.08,0,0,1-.21-.14c-1-.6-1.45-2-1.46-4.2V89.06A11.29,11.29,0,0,1,282,78.64l95.06-54.89c2-1.15,3.47-1.45,4.49-.9h.09c1,.6,1.47,2.06,1.47,4.37V47.27"/><path class="cls-36" d="M277.4,146.88l-5-2.85-1.63-.9h-.07c-1-.6-1.46-2.07-1.46-4.38V85.18a11.4,11.4,0,0,1,6.05-10.43l95.06-54.82q3-1.74,4.51-.9l6.72,3.82c-1-.55-2.51-.25-4.49.9L282,78.64a11.29,11.29,0,0,0-6.05,10.42v53.62c0,2.2.5,3.6,1.46,4.2"/><g class="cls-37"><g class="cls-38"><path class="cls-39" d="M308.7,85.28l.8.46.39-.67-.81-.46Z"/></g></g><path class="cls-40" d="M563.21,388.76l-12.64-7.57.69-.28c2.09-1.2,3.13-2.69,3.13-4.45s-1.11-3.2-3.2-4.45l11.61-6.6q7.63,4.51,8.34,10.56a5,5,0,0,1,.13,1.19Q571.33,384,563.21,388.76ZM277.33,184.54l12,29.53-28.91-3.33a.91.91,0,0,1-.06-.35,38.81,38.81,0,0,1,6-15.08A34.58,34.58,0,0,1,277.33,184.54Zm17.3,62.19L289.77,215l27.45,9a36.48,36.48,0,0,1-14.38,18.69A29.15,29.15,0,0,1,294.63,246.73ZM299,103.24,288.45,121a2.44,2.44,0,0,0,.28.14l-.07.07a2.06,2.06,0,0,0-.42-.21q-4-2.5-4-9.24-.07-6.94,4.31-14.32A29.59,29.59,0,0,1,299,86.71v16.47l-.08.06h0"/><path class="cls-41" d="M592.88,406.26a5.77,5.77,0,0,0-.06.78,6.55,6.55,0,0,0,3.89,5.77,24.64,24.64,0,0,0,6.74,4.51c.78.41,1.62.81,2.5,1.18l.69.27q-2.85-.54-5.62-1a38.33,38.33,0,0,0-6.47-.41q-8.13.82-13-3.69a15.9,15.9,0,0,1-2.78-3.47,1.91,1.91,0,0,0-.35-.48,1.5,1.5,0,0,1,.07-1.88q5-5.28,14.18-2.85l-.14-.63,1.39-.14Zm26.62-9.58-5.07-4.31-.21-7.15,1.22-.14,4.13-.49-.14,2-.21,2.77-1,1.53.76,3.54ZM371.42,58.22v5.2L322,91.78V86.5Zm0-10.64V52.8L322,81.22V75.86Zm-49.68,53.78v-5.2l30.57-17.45V84Zm-12.1,7.86a28.76,28.76,0,0,1-10.49,10.7q-6.12,3.33-10.42,1.18a2.44,2.44,0,0,1-.28-.14L299,103.24Zm327,127L637,238q-4.11,7.43-10.21,8.61a19.72,19.72,0,0,1-2.82.35,9.47,9.47,0,0,1-6.63-1.88V245l4-2.23a28.61,28.61,0,0,0,4.32-.9A35.52,35.52,0,0,0,636.66,236.17ZM573.5,245c-.51.18-1,.34-1.6.48s-1.31.43-1.88.66q-3.51,1.52-4,3.85l0,.15a26.45,26.45,0,0,1-.66,2.88v0a5.42,5.42,0,0,1-.9-1,.36.36,0,0,1-.14-.28,5.78,5.78,0,0,1-.81-3c0-.19,0-.38,0-.59s.09-.47.14-.69a2.3,2.3,0,0,1,.14-.42,4.9,4.9,0,0,1,1.18-2,3.88,3.88,0,0,1,1.11-1,8.57,8.57,0,0,1,1.25-.63l1-.14a7.88,7.88,0,0,1,1.08,0A6.18,6.18,0,0,1,572,244Zm4.62-6.67,0-.08a5.68,5.68,0,0,1,5.28-3.26c1.3.41,2.46.74,3.48,1l-.28.14q-4.65,3.19-5.49,6.74c-.14.65-.32,2.32-.56,5l-2.46-9.51"/><path class="cls-42" d="M536.18,380.7l-12.85,7.37q-8.34-5.07-8.41-12s0-.11,0-.2q-.07-6.62,8.06-11.33L535.35,372a4.62,4.62,0,0,0-2.43,4c0,1.77,1.06,3.27,3.19,4.52A.21.21,0,0,1,536.18,380.7ZM289.77,215l4.86,31.69.07.07a26.6,26.6,0,0,1-14.52.41,6.65,6.65,0,0,0-.83-.2,20.86,20.86,0,0,1-4.87-2.09l-3.54-2.15-1.22-1a26.1,26.1,0,0,1-1.91-2l21.61-25.58.21-.35.07.21h-.14l.21.14v.9"/><path class="cls-43" d="M550.57,381.19l12.64,7.57q-8.21,4.73-19.87,4.52t-20.09-5.21h.08l12.85-7.37a16.22,16.22,0,0,0,7.58,1.8A13.87,13.87,0,0,0,550.57,381.19ZM307.91,185.86l-17.2,26.54-.87,1.33-.14.06V214l-.07-.21-.21.35-.07-.07-12-29.53-.07-.07a.58.58,0,0,0,.28-.07l.14-.14A29,29,0,0,1,293.31,180a24.86,24.86,0,0,1,6.33,1.11,23.93,23.93,0,0,1,8.61,4.38l-.34.35"/><path class="cls-44" d="M289.77,214.14l-.21-.14.21.07Zm.07-.35-.07.21-.07-.21.14-.06v.06"/><g class="cls-45"><g class="cls-46"><g class="cls-47"><path class="cls-48" d="M289.45,213.66l1.17.4.48-1.52-1.18-.41Z"/></g></g></g><path class="cls-49" d="M619.92,397.72l-.42-1-.56-2.23Zm-23.21,15.09a6.55,6.55,0,0,1-3.89-5.77,5.77,5.77,0,0,1,.06-.78,6.51,6.51,0,0,0,2.64,5.64A10.41,10.41,0,0,1,596.71,412.81Zm17.44,5.27a7.44,7.44,0,0,0,1.67-3.75,3.18,3.18,0,0,1,.27-.76q-.83-9.79-1.73-19.74l6.39,5.9,1.39,2.51q2.57,10.9,11.88,6.39a1.53,1.53,0,0,0,.9-1.53,55.49,55.49,0,0,0,3.24-13,24,24,0,0,1,5.08,4.48,14.1,14.1,0,0,1,3.29,7.43c.05.5.07,1,.07,1.53q0,8.76-10.77,14.94t-25.92,6.12c-.81,0-1.63,0-2.43,0a58.7,58.7,0,0,1-12.93-1.81,43.8,43.8,0,0,1-10.35-4.13l-.28-.14a27.67,27.67,0,0,1-6.74-5.25,14.45,14.45,0,0,1-3.82-7.85,12.35,12.35,0,0,1-.14-1.84,14.12,14.12,0,0,1,4.24-10,27.74,27.74,0,0,1,6.46-4.9,44.28,44.28,0,0,1,11.36-4.52l.39-.1a.48.48,0,0,0,0,.17,86.67,86.67,0,0,1,.07,13.28,3,3,0,0,1-1.81,2.63l-1.39.14.14.63q-9.18-2.43-14.18,2.85a1.5,1.5,0,0,0-.07,1.88,1.91,1.91,0,0,1,.35.48,6.5,6.5,0,0,0,2.15,4.8,11.07,11.07,0,0,0,5.22,2.91q2,.28,6.81.42a37.9,37.9,0,0,1,6.88.7v2.15c.6.1,1.84.35,3.75.76a20.57,20.57,0,0,0,4.09.77Q612.29,423.15,614.15,418.08Zm-241.1,3.3,4.28,2.47-3.82,2.22a9.86,9.86,0,0,1-10.43,0L322.92,403a5.25,5.25,0,0,1-2.65-2.58,1.22,1.22,0,0,1,.08-.7c.08-.92.94-1.82,2.57-2.7l7-4.07v6.71c0,.88.69,1.73,2.08,2.57l33,18.83A7.64,7.64,0,0,0,373.05,421.38Zm169.52-96.82c-.31.23-.66.46-1,.69l-15.84,9.17.07.07L522,336.58h-.06l-20.71,12.09a9.84,9.84,0,0,1-10.42,0l-14.18-8.13v-5.81l15.77,9a7.75,7.75,0,0,0,8.48.07L533.61,325c1.67-1,2.34-1.92,2-2.84l.07-5-.07.07a1.13,1.13,0,0,0,0-.77v-.62l5.9,3.4c1.81,1.07,2.68,2.11,2.64,3.13A3.27,3.27,0,0,1,542.57,324.56Zm-88.18,53.88-12.3,7.19-.34.21,1.7-6.11,10.94-6.33ZM534.76,75.51l-1.11,4-.11.07-32.73,18.9a8.11,8.11,0,0,1-8.48.07l-16.95-9.8h-.07L472.39,87l.07-.07-13.07-7.43c-1.38-.83-2.07-1.55-2.08-2.16v-.48c.09-.79.79-1.55,2.08-2.3l32.67-18.89a8.41,8.41,0,0,1,8.61,0l9.38,5.49v-.08l14,8.07H524l9.52,5.62a9,9,0,0,1,1.22.76"/><g class="cls-50"><g class="cls-51"><path class="cls-52" d="M457.31,77.32V231.86H535.7V77.32Z"/></g></g><g class="cls-53"><g class="cls-54"><path class="cls-55" d="M476.63,199V345.46H536V199Z"/></g></g><path class="cls-56" d="M457.31,175.23l7.71,4.45H465l9.51,5.56c1.3.74,2,1.46,2.16,2.15v.21a.69.69,0,0,1,.07.34V188l-.07.06a4.52,4.52,0,0,1-2.16,2l-18.65,10.81-8.31-5-3.3,11.74L441.82,209a8.24,8.24,0,0,1-8.55.07l-16.89-9.87h-.07l-3-1.67.06-.07L400.33,190c-1.38-.83-2.07-1.52-2.08-2.09v-.55c.08-.79.78-1.57,2.08-2.37l27.83-16,4.83-2.77a8,8,0,0,1,8.61,0l9.46,5.42v-.08l6.25,3.62"/><g class="cls-57"><g class="cls-58"><path class="cls-59" d="M398.25,281.37v98.36h78.38V281.37Z"/></g></g><path class="cls-60" d="M397.48,341.51l-24.05,13.9a8.1,8.1,0,0,1-8.47.07l-16.89-9.8h-.13L345,343.94v-.07l-13-7.37c-1.38-.87-2.07-1.59-2.08-2.15v-.48c.08-.84.78-1.63,2.08-2.37l32.66-18.83a8.25,8.25,0,0,1,8.62,0l4.2,2.44,1.11.65,4.07,2.33V318l14,8.06h-.08l1.68,1,7.92,4.59a6.76,6.76,0,0,1,1.49,1.11L401,328.93,397.72,341l-.1,0-.14.49"/><g class="cls-61"><g class="cls-62"><path class="cls-63" d="M329.94,334.35V422.8h67.54V334.35Z"/></g></g><path class="cls-64" d="M479.9,414.61l-.84.49-38.15-21.89,13.48-7.79V393l24.53,14.45H479L503.45,393v-7l13,7.47-18.62,10.77Zm-102.57,9.24-4.28-2.47.46-.24,2.29-1.32-.35,1.25,10.77-6.18-2.71,9.66,12.37,7.29h3.75l34.95-20.36,2-7.08,11.5,6.6-46.35,26.82-24.39-14"/><g class="cls-65"><g class="cls-66"><path class="cls-67" d="M398.25,187.94V295h78.47v-107Z"/></g></g><path class="cls-68" d="M408.67,334.66,397.72,341l3.3-12.06,6.64,3.82,1.32.77-.31,1.14"/><path class="cls-69" d="M375.8,419.82l21.68-78.31.14-.49.1,0,10.95-6.33-22.45,80.23-10.77,6.18.35-1.25"/><path class="cls-70" d="M399.63,431.84h-3.75l63.79-228.61h.07a.07.07,0,0,1,.08.08v.06l1.53,7.16ZM500.19,249l-2.09-5.76,16.71-59.66a21.57,21.57,0,0,0,2.23,5.11ZM529,132.6l18-64.24,2.85,2.71-15.43,55.31A64.7,64.7,0,0,0,529,132.6ZM582.19,17.78,534.93,56.55,531.74,54l-.08-.06L578.92,15.2l3.27,2.58"/><path class="cls-71" d="M454.39,373.4v-8.06l24.53,14.39.07,27.72h-.07L454.39,393Zm53-75.46-12.16-7.43-18.62-19.18-2.3-2.36,1.19-4.24,1.11,1.14v0Zm-24.94-71.08,7.85,8.2,7.78,8.13,2.09,5.76-38.84-38.42-1.53-7.16v-.06l16.81,17.5ZM534.93,56.55l11.4,11.19-8.06-4.87L522,48.07l9.66,5.84.08.06ZM565.16,91l1-3.61,16,15.78-10.62-6.4L565.16,91"/><path class="cls-7" d="M503.45,369.16V393L479,407.45l-.07-27.72,24.53-14.39ZM535,198.92l-4.65,16.75-23,82.27-30.78-32v0l-1.11-1.14L474.33,269l-5,18-25.85,92.73-1.7,6.11-5.18,18.56-2,7.08-34.95,20.36,61.72-221.31L500.19,249,517,188.64a16.92,16.92,0,0,0,5.94,5.77,16.48,16.48,0,0,0,5.14,1.91c.27.18.55.36.84.52A16.42,16.42,0,0,0,535,198.92Zm11.3-131.18-11.4-11.19,47.26-38.77v85.46l-.08-.06-16-15.78-1,3.61L559,113q-6,.36-13.17,4.48a53.93,53.93,0,0,0-11.47,8.89L549.8,71.07,547,68.36l-.48-.55-.14-.07"/><path class="cls-72" d="M395.88,431.84l-12.37-7.29,2.71-9.66,22.45-80.23.31-1.14L419.75,295l24.46-87.38,3.3-11.74,8.31,5,3.85,2.32L395.88,431.84"/><path class="cls-73" d="M559.81,232.21c.17.41.35.87.56,1.39l.2.55q1.95,4.65,3.76,5.22c.88.31,1.15.39.83.2l.62-.62a59.8,59.8,0,0,0-1.59-5.91,44.31,44.31,0,0,1,4.86,9.11,8.92,8.92,0,0,0-1.88.55,14.13,14.13,0,0,0-4,2c-.3.23-.6.48-.9.73s-.49.39-.76.63a28,28,0,0,1-4-13.55,3.25,3.25,0,0,1,.56-.22,3.66,3.66,0,0,1,1.39-.13A.73.73,0,0,1,559.81,232.21Zm60.52-5.84a4.92,4.92,0,0,1,1.67,3.2,6.73,6.73,0,0,1-1.53,4.52l-.69-.56-1.39,1.94-5.28-4.37a31.4,31.4,0,0,1,2.5-12.16,15.87,15.87,0,0,0-.21,2.64c0,.09.14,1.3.42,3.61.46,1.9,1.13,3,2,3.34v1.31l2-3.75a.42.42,0,0,1,.22.08.86.86,0,0,0,.21.13S620.29,226.37,620.33,226.37Zm-38.56,6.47a11,11,0,0,0-3.89,3.53,2.76,2.76,0,0,1-.21.25l-.69-2.68h-.43a2,2,0,0,0,.21-.83,1.6,1.6,0,0,0-.06-.62,1.64,1.64,0,0,0-.21-.56l0-.07a2.62,2.62,0,0,0-.17-.21,7.46,7.46,0,0,0-1.81-1.46,6,6,0,0,1-1.94-1.81,2.17,2.17,0,0,1,0-2.49c1,.38,1.85.77,2.67,1.18a22,22,0,0,1,3.44,2.08,12.09,12.09,0,0,1,2.92,3.34,1,1,0,0,0,.21.35"/><path class="cls-74" d="M564.19,233a59.8,59.8,0,0,1,1.59,5.91l-.62.62c.32.19.05.11-.83-.2q-1.82-.57-3.76-5.22l-.2-.55c-.21-.52-.39-1-.56-1.39l.21,0a2.35,2.35,0,0,1,.9.52,4.91,4.91,0,0,1,1,1.81,7.2,7.2,0,0,1,.07-2.22,2.73,2.73,0,0,1,.35-1,.94.94,0,0,1,.83.41Q563.69,232.35,564.19,233Zm4.86,9.11q.24.57.45,1.14a7.88,7.88,0,0,0-1.08,0l-1,.14a8.57,8.57,0,0,0-1.25.63,3.88,3.88,0,0,0-1.11,1,4.9,4.9,0,0,0-1.18,2,2.3,2.3,0,0,0-.14.42c-.05.22-.09.46-.14.69s0,.4,0,.59c-.67-.86-1.33-1.78-2-2.74.27-.24.53-.45.76-.63s.6-.5.9-.73a14.13,14.13,0,0,1,4-2A8.92,8.92,0,0,1,569.05,242.15Zm48.78-13.62c-.88-.33-1.55-1.44-2-3.34-.28-2.31-.42-3.52-.42-3.61a15.87,15.87,0,0,1,.21-2.64c0-.05,0-.07.07-.07A37.76,37.76,0,0,1,618.8,213a10.83,10.83,0,0,0-.2,1.25v.49a15.65,15.65,0,0,0-.21,1.59v.28c-.14,1.17-.23,2.32-.28,3.48v.21Zm-36.48,6.8a6.49,6.49,0,0,0-3.2,2.92l0,.08-.45-1.71a2.76,2.76,0,0,0,.21-.25,11,11,0,0,1,3.89-3.53,7,7,0,0,1,.69,1.94l.42.07a.93.93,0,0,0-.14.14,5,5,0,0,0-1.39.34"/><path class="cls-75" d="M582.74,235a.93.93,0,0,1,.14-.14l.55.07a3.23,3.23,0,0,0-.69.07"/><path class="cls-76" d="M581.14,250a42.5,42.5,0,0,0,22,6.92c.76,0,1.52,0,2.29,0l3.41-.07a8.06,8.06,0,0,1,3.34,5.28q2.83,14.06-11,12.79l-1.11-.41a57.83,57.83,0,0,1-6.32-2.72,103.93,103.93,0,0,1-19-11.6q-2.69-2.07-5.24-4.31l-2.92-2.43a1.92,1.92,0,0,1-1.18-.42v0a26.45,26.45,0,0,0,.66-2.88l0-.15q.45-2.34,4-3.85c.57-.23,1.19-.45,1.88-.66s1.09-.3,1.6-.48l3.75,2.7a14.54,14.54,0,0,1,2.64,1.47C580.3,249.45,580.72,249.73,581.14,250Zm40-10.14a9.36,9.36,0,0,1,.27,2.92l-4,2.23v.06a62,62,0,0,0-6.54,4.31c-.69.51-1.39,1-2.08,1.6a12.52,12.52,0,0,0-2.64,1.95c-.76,0-1.53-.12-2.29-.22-5.06-.64-8.46-1.17-10.22-1.59-1.16-.24-2.66-.58-4.52-1-.65-.19-1.34-.37-2.08-.56l-.77-.28h-.35a45.78,45.78,0,0,0-5.28-1.39c.24-2.68.42-4.35.56-5q.84-3.54,5.49-6.74l.28-.14H587a31.27,31.27,0,0,1,3.55,1.11h.2l.42.14c2.55.6,4.79,1,6.74,1.32a128.7,128.7,0,0,0,23.21,1.32"/><path class="cls-77" d="M534,184.85a10,10,0,0,0,1.32.87,11.37,11.37,0,0,0,3,1.21q5.85,1.5,13.45-2.88,9.58-5.55,16.4-17.3t6.8-22.93q0-11.12-6.8-15a13.54,13.54,0,0,0-1.32-.66c-3.58-1.55-7.69-1.28-12.34.84a27.59,27.59,0,0,0-2.74,1.42q-9.66,5.57-16.47,17.37t-6.81,22.87Q528.54,180.63,534,184.85Zm27.59,2.43a54.93,54.93,0,0,1-8.72,6.64c-.36.21-.72.41-1.08.63q-9,5.13-16.12,4.44h-.07l-.6-.07a16.42,16.42,0,0,1-6.07-2.08c-.29-.16-.57-.34-.84-.52q-7.54-5-8.48-17c-.09-1.12-.14-2.29-.14-3.5q0-15.44,9.46-31.83c.34-.6.7-1.21,1.07-1.81q9.12-15,21.79-22.3a42.7,42.7,0,0,1,6.07-2.92,21.47,21.47,0,0,1,11.54-1.32,16.28,16.28,0,0,1,5.18,1.95q9.51,5.48,9.52,20.91t-9.52,31.89a71.57,71.57,0,0,1-13,16.85"/><path class="cls-78" d="M517,188.64a21.57,21.57,0,0,1-2.23-5.11,35.77,35.77,0,0,1-1.28-10.1q0-15.44,9.45-31.83a79.86,79.86,0,0,1,6-9,64.7,64.7,0,0,1,5.41-6.22,53.93,53.93,0,0,1,11.47-8.89Q553,113.37,559,113a16.64,16.64,0,0,1,9.62,2.18l.8.49A21.47,21.47,0,0,0,557.89,117a42.7,42.7,0,0,0-6.07,2.92q-12.68,7.29-21.79,22.3c-.37.6-.73,1.21-1.07,1.81q-9.47,16.4-9.46,31.83c0,1.21,0,2.38.14,3.5q.93,12,8.48,17a16.48,16.48,0,0,1-5.14-1.91,16.92,16.92,0,0,1-5.94-5.77"/><path class="cls-79" d="M534,184.85a13.36,13.36,0,0,0,4.9.11,24.14,24.14,0,0,0,8.3-3.13q9.79-5.62,16.67-17.58t7-23.27q0-8.5-4-12.83a13.54,13.54,0,0,1,1.32.66q6.81,3.9,6.8,15t-6.8,22.93q-6.83,11.75-16.4,17.3-7.61,4.38-13.45,2.88a11.37,11.37,0,0,1-3-1.21,10,10,0,0,1-1.32-.87"/><path class="cls-80" d="M566.9,128.15q4,4.33,4,12.83,0,11.33-7,23.27t-16.67,17.58a24.14,24.14,0,0,1-8.3,3.13,13.36,13.36,0,0,1-4.9-.11q-5.49-4.22-5.49-14.2,0-11.13,6.81-22.87t16.47-17.37a27.59,27.59,0,0,1,2.74-1.42c4.65-2.12,8.76-2.39,12.34-.84"/><path class="cls-81" d="M569.58,218.14l.65,2.6a3.3,3.3,0,0,1-.76,2.92,6.25,6.25,0,0,1-3.2,1.94,6.31,6.31,0,0,1-3.75-.13,3.11,3.11,0,0,1-2.09-2.23l-.62-2.46-6.91-26.86a54.93,54.93,0,0,0,8.72-6.64l8,30.86"/><path class="cls-82" d="M609.7,419.54a4.81,4.81,0,0,0,4.45-1.46q-1.87,5.07-6.47,4.59a20.57,20.57,0,0,1-4.09-.77c-1.91-.41-3.15-.66-3.75-.76V419a37.9,37.9,0,0,0-6.88-.7q-4.8-.14-6.81-.42a11.07,11.07,0,0,1-5.22-2.91,6.5,6.5,0,0,1-2.15-4.8,15.9,15.9,0,0,0,2.78,3.47q4.86,4.53,13,3.69a38.33,38.33,0,0,1,6.47.41q2.78.5,5.62,1A11.17,11.17,0,0,0,609.7,419.54Zm11-19.81-6.39-5.9.07-1.46,5.07,4.31.42,1Zm14.17,7.37a1.53,1.53,0,0,1-.9,1.53q-9.3,4.51-11.88-6.39a6.46,6.46,0,0,0,.9,1,.23.23,0,0,0,.07.14l2.36,1.95a.89.89,0,0,1,.28.21A12,12,0,0,0,634.92,407.1Zm-69.55-154a1.92,1.92,0,0,0,1.18.42l2.92,2.43q2.55,2.23,5.24,4.31a18.54,18.54,0,0,1-4.9.49c-1.66-.1-2.59-.51-2.78-1.25Zm74.49-21.33-.69.14a1.43,1.43,0,0,1,.48.07A11.61,11.61,0,0,1,636,235.4a5.52,5.52,0,0,0-.7.56,12.07,12.07,0,0,1-4.37,2.5c-1,0-2.06.07-3.13.07h-1.11a11.68,11.68,0,0,1-5.49-3.54c-.23-.28-.47-.58-.7-.9a6.73,6.73,0,0,0,1.53-4.52,9.44,9.44,0,0,0,8.13,4.24,21.89,21.89,0,0,0,4.94-1.05c.83-.23,1.69-.49,2.57-.76a16.78,16.78,0,0,1-2.64.21q-10.92,0-15.57-9c0,.33.12.75.21,1.26a17.36,17.36,0,0,0,.69,1.94s-.06,0-.06-.07a.86.86,0,0,1-.21-.13.42.42,0,0,0-.22-.08l-2,3.75v-1.31l.28-8.27v-.21c0-1.16.14-2.31.28-3.48v-.28a15.65,15.65,0,0,1,.21-1.59v-.49a10.83,10.83,0,0,1,.2-1.25,3.13,3.13,0,0,1-.13-.83.21.21,0,0,1-.07-.14V210.8a5.86,5.86,0,0,1,.42-2,.51.51,0,0,1,.2-.21,63.25,63.25,0,0,1,2.23,6.74,14.93,14.93,0,0,0,1.87,7.09q3.34,5.7,11.6,5.7a14.28,14.28,0,0,0,6.54-1.32,13,13,0,0,1-.42,2A9.29,9.29,0,0,1,639.86,231.72Zm-63.41.14.31,1.25a2,2,0,0,1-.21.83H577l.69,2.68.45,1.71,2.46,9.51.56,2.15c-.42-.26-.84-.54-1.25-.82a14.54,14.54,0,0,0-2.64-1.47L573.5,245,572,244a6.18,6.18,0,0,0-2.47-.66q-.21-.57-.45-1.14a44.31,44.31,0,0,0-4.86-9.11q-.5-.69-1.05-1.32a.94.94,0,0,0-.83-.41,2.73,2.73,0,0,0-.35,1,7.2,7.2,0,0,0-.07,2.22,4.91,4.91,0,0,0-1-1.81,2.35,2.35,0,0,0-.9-.52l-2.3-8.85c-.18-.75.42-1.56,1.81-2.44l.28-.17.62,2.46a3.11,3.11,0,0,0,2.09,2.23,6.31,6.31,0,0,0,3.75.13,6.25,6.25,0,0,0,3.2-1.94,3.3,3.3,0,0,0,.76-2.92l-.65-2.6c.31,0,.63,0,.93,0,1.62,0,2.52.44,2.71,1.18l2,7.72c-.82-.41-1.71-.8-2.67-1.18a2.17,2.17,0,0,0,0,2.49,6,6,0,0,0,1.94,1.81,7.46,7.46,0,0,1,1.81,1.46,2.62,2.62,0,0,1,.17.21"/><path class="cls-83" d="M630.9,238.46a8.6,8.6,0,0,1-4.24.07h1.11C628.84,238.53,629.88,238.51,630.9,238.46Zm-8.9-8.89a4.92,4.92,0,0,0-1.67-3.2,17.36,17.36,0,0,1-.69-1.94c-.09-.51-.17-.93-.21-1.26q4.65,9,15.57,9a16.78,16.78,0,0,0,2.64-.21c-.88.27-1.74.53-2.57.76a21.89,21.89,0,0,1-4.94,1.05A9.44,9.44,0,0,1,622,229.57Zm17.65,2.36a1.43,1.43,0,0,0-.48-.07l.69-.14A.47.47,0,0,1,639.65,231.93Zm1.81-5.14a14.28,14.28,0,0,1-6.54,1.32q-8.26,0-11.6-5.7a14.93,14.93,0,0,1-1.87-7.09,63.25,63.25,0,0,0-2.23-6.74.51.51,0,0,0-.2.21c1-1.89,3.53-2.41,7.64-1.53q15.21,3.35,14.8,18.56v1"/><path class="cls-84" d="M626.66,238.53a8.6,8.6,0,0,0,4.24-.07,12.07,12.07,0,0,0,4.37-2.5,5.52,5.52,0,0,1,.7-.56l.63.77h.06a35.52,35.52,0,0,1-11,5.7,28.61,28.61,0,0,1-4.32.9,9.36,9.36,0,0,0-.27-2.92,8.75,8.75,0,0,0-2-3.61,2.93,2.93,0,0,0-.76-.77l1.39-1.94.69.56c.23.32.47.62.7.9a11.68,11.68,0,0,0,5.49,3.54"/><path class="cls-85" d="M614.5,312.11a18.74,18.74,0,0,1-4.45-.69c-.69-.14-1.37-.3-2-.48a216.59,216.59,0,0,0,5.56-24.19q1.18-6.6,3-13.34,3.78-13.16-5.38-20.67a24.74,24.74,0,0,0-2.47-1.77c.69-.56,1.39-1.09,2.08-1.6a62,62,0,0,1,6.54-4.31,9.47,9.47,0,0,0,6.63,1.88,19.72,19.72,0,0,0,2.82-.35q6.11-1.18,10.21-8.61l-.35-1.81,5.22.69a10.24,10.24,0,0,1,2.57.35,13.67,13.67,0,0,1,2.64.84,6.08,6.08,0,0,1,3.26,4.3q2.79,14.8-7,27.45-9.47,12.3-6.74,28a17.09,17.09,0,0,1-8.55,9.1,24.21,24.21,0,0,0-2.3,1.39,17.26,17.26,0,0,1-11.25,3.82"/><path class="cls-86" d="M608,310.94c-1.06-.37-2.11-.79-3.13-1.26q-4.57-2.08-9.58-4.65,1-3.61,1.74-7.23a193.77,193.77,0,0,0,3-22.65c0-.21,0-.41,0-.62l1.11.41q13.83,1.26,11-12.79a8.06,8.06,0,0,0-3.34-5.28l-3.41.07c-.77,0-1.53,0-2.29,0a15.11,15.11,0,0,1,3-4,12.52,12.52,0,0,1,2.64-1.95,24.74,24.74,0,0,1,2.47,1.77q9.15,7.5,5.38,20.67-1.8,6.75-3,13.34A216.59,216.59,0,0,1,608,310.94"/><path class="cls-87" d="M617.14,357.52c-.79-4.35-1.78-8.7-3-13q1.74-5.56,3.89-11c1-2.73,1.94-5.47,2.92-8.2,0-.14.09-.28.14-.41,0,.17,0,.34.07.52q.78,6,2.78,20,2.71,20.31,3.23,28c.07,1.19.11,2.15.11,2.89v6.26c0,2-.06,3.94-.11,5.79q0,.3,0,.6-.1,3.09-.24,5.9-.5,6.53-1.19,10.64a.89.89,0,0,0-.28-.21l-2.36-1.95a.23.23,0,0,1-.07-.14,6.46,6.46,0,0,1-.9-1l-1.39-2.51-.83-2-1.74-6.81,1-1.53.21-2.77a20.41,20.41,0,0,0,.24-4l0-.48c0-.69,0-1.37-.07-2.05-.18-3.88-.49-7.73-.9-11.57,0-.26,0-.51-.07-.77s-.09-.83-.14-1.25c-.19-1.67-.41-3.33-.66-5C617.6,360.19,617.38,358.86,617.14,357.52Zm-26.65-15.24q-.37-5.67-.45-11.33a60.44,60.44,0,0,1,3.51-21.47c.53-1.5,1.11-3,1.77-4.45q5,2.57,9.58,4.65c1,.47,2.07.89,3.13,1.26.65.18,1.33.34,2,.48a18.74,18.74,0,0,0,4.45.69q-.56,2-1.46,4.59c-.44,1.29-.83,2.42-1.15,3.37-.74,2.19-1.2,3.51-1.36,4q-1.66,6.12-5.28,15.91a55.83,55.83,0,0,0-2.32,9.42c-.18,1.16-.3,2.3-.39,3.4,0,.79-.07,1.57-.07,2.33,0,1.31,0,2.68.11,4.1a147.12,147.12,0,0,0,1.63,15.63c.37,2.43.7,4.67,1,6.74.27,1.83.51,3.51.73,5q.93,6.53,1.25,9.62c.23,2.27.62,5.8,1.18,10.57s1,8.08,1.18,10.21c.05.6.1,1.44.14,2.5a11.17,11.17,0,0,1-3.06-.77l-.69-.27c-.88-.37-1.72-.77-2.5-1.18a24.64,24.64,0,0,1-6.74-4.51,10.41,10.41,0,0,0-1.19-.91,6.51,6.51,0,0,1-2.64-5.64l1-2.08a3,3,0,0,0,1.81-2.63,86.67,86.67,0,0,0-.07-13.28.48.48,0,0,1,0-.17c0-.3,0-.6-.07-.9q-1.07-13.43-3.13-26.8-.59-3.79-1-7.6c-.27-2.24-.5-4.47-.69-6.71-.11-1.27-.2-2.54-.28-3.81"/><path class="cls-88" d="M614.15,418.08a4.81,4.81,0,0,1-4.45,1.46c0-1.06-.09-1.9-.14-2.5-.18-2.13-.58-5.53-1.18-10.21s-1-8.3-1.18-10.57q-.32-3.09-1.25-9.62c-.22-1.53-.46-3.21-.73-5-.31-2.07-.64-4.31-1-6.74a147.12,147.12,0,0,1-1.63-15.63c-.07-1.42-.11-2.79-.11-4.1,0-.76,0-1.54.07-2.33.09-1.1.21-2.24.39-3.4a55.83,55.83,0,0,1,2.32-9.42q3.62-9.8,5.28-15.91c.16-.49.62-1.81,1.36-4,.32-.95.71-2.08,1.15-3.37q.9-2.56,1.46-4.59a17.26,17.26,0,0,0,11.25-3.82,24.21,24.21,0,0,1,2.3-1.39,17.09,17.09,0,0,0,8.55-9.1,28.13,28.13,0,0,1,.34,11.26q-2,11.73-3.47,23.45c-.25,1.87-.48,3.73-.7,5.6a14.36,14.36,0,0,0,.35,5.41,153.57,153.57,0,0,1,4.31,26.68q.3,4.83.77,9.6c0,.44.09.88.13,1.32a63.51,63.51,0,0,1,.14,9.83c0,.11,0,.23,0,.34-.07,1-.16,1.91-.27,2.86a55.49,55.49,0,0,1-3.24,13,12,12,0,0,1-9.17-1.59q.69-4.11,1.19-10.64.13-2.81.24-5.9,0-.3,0-.6c.05-1.85.08-3.79.11-5.79v-6.26c0-.74,0-1.7-.11-2.89q-.52-7.73-3.23-28-2-13.95-2.78-20c0-.18,0-.35-.07-.52-.05.13-.1.27-.14.41-1,2.73-2,5.47-2.92,8.2q-2.16,5.42-3.89,11a.17.17,0,0,0-.07-.14l-.69,2.43a4.21,4.21,0,0,0-.21.83l-1.81,5.7c0,.28-.08.57-.1.87a13.7,13.7,0,0,0,0,2.12c0,.53.09,1.05.14,1.56q.3,3.42.62,6.85.57,6.06,1.22,12.16c.3,2.78.62,5.56.94,8.34l.21,7.15-.07,1.46q.9,9.94,1.73,19.74a3.18,3.18,0,0,0-.27.76,7.44,7.44,0,0,1-1.67,3.75"/><path class="cls-89" d="M618.94,394.45l-.76-3.54,1.74,6.81Z"/></svg>