<svg id="Layer_1" data-name="Layer 1" xmlns="http://www.w3.org/2000/svg" xmlns:xlink="http://www.w3.org/1999/xlink" viewBox="0 0 841.89 595.28"><defs><style>.cls-1{fill-opacity:0.15;}.cls-15,.cls-2,.cls-22{fill:none;}.cls-3{fill:#5fb6c7;}.cls-4{fill:url(#linear-gradient);}.cls-5{fill:#8ec6ed;}.cls-6{fill:#fab440;}.cls-7{fill:#2750a7;}.cls-10,.cls-24,.cls-25,.cls-8{fill:#263238;}.cls-15,.cls-22,.cls-25,.cls-26,.cls-8,.cls-9{stroke:#263238;}.cls-10,.cls-15,.cls-22,.cls-8,.cls-9{stroke-linecap:round;stroke-linejoin:round;}.cls-13,.cls-26,.cls-9{fill:#fff;}.cls-10{stroke:#fff;}.cls-11{opacity:0.25;}.cls-12{clip-path:url(#clip-path);}.cls-14{clip-path:url(#clip-path-2);}.cls-16{clip-path:url(#clip-path-3);}.cls-17{clip-path:url(#clip-path-4);}.cls-18{clip-path:url(#clip-path-5);}.cls-19{opacity:0.42;}.cls-20{mask:url(#mask);}.cls-21{clip-path:url(#clip-path-7);}.cls-22{stroke-width:0.25px;}.cls-23{fill:#00c2cb;}.cls-25,.cls-26{stroke-miterlimit:10;stroke-width:0.5px;}</style><linearGradient id="linear-gradient" x1="93.28" y1="274.43" x2="715.57" y2="274.43" gradientUnits="userSpaceOnUse"><stop offset="0" stop-color="#edf9fd"/><stop offset="0.25" stop-color="#edf9fd"/><stop offset="0.31" stop-color="#ecf9fd"/><stop offset="0.33" stop-color="#ecf9fd"/><stop offset="0.34" stop-color="#ebf8fd"/><stop offset="0.34" stop-color="#eaf8fd"/><stop offset="0.35" stop-color="#eaf8fd"/><stop offset="0.36" stop-color="#e9f8fd"/><stop offset="0.37" stop-color="#e9f8fd"/><stop offset="0.38" stop-color="#e8f8fd"/><stop offset="0.38" stop-color="#e8f7fd"/><stop offset="0.39" stop-color="#e7f7fc"/><stop offset="0.39" stop-color="#e6f7fc"/><stop offset="0.4" stop-color="#e6f7fc"/><stop offset="0.41" stop-color="#e5f7fc"/><stop offset="0.42" stop-color="#e5f7fc"/><stop offset="0.43" stop-color="#e4f6fc"/><stop offset="0.44" stop-color="#e3f6fc"/><stop offset="0.45" stop-color="#e2f6fc"/><stop offset="0.45" stop-color="#e2f6fc"/><stop offset="0.46" stop-color="#e1f6fc"/><stop offset="0.47" stop-color="#e1f5fc"/><stop offset="0.47" stop-color="#e0f5fc"/><stop offset="0.48" stop-color="#dff5fb"/><stop offset="0.48" stop-color="#dff5fb"/><stop offset="0.49" stop-color="#dff5fb"/><stop offset="0.5" stop-color="#def4fb"/><stop offset="0.51" stop-color="#def4fb"/><stop offset="0.52" stop-color="#ddf4fb"/><stop offset="0.52" stop-color="#ddf4fb"/><stop offset="0.53" stop-color="#dcf4fb"/><stop offset="0.53" stop-color="#dbf3fb"/><stop offset="0.54" stop-color="#dbf3fb"/><stop offset="0.54" stop-color="#daf3fb"/><stop offset="0.55" stop-color="#d9f3fb"/><stop offset="0.55" stop-color="#d9f3fa"/><stop offset="0.56" stop-color="#d9f3fa"/><stop offset="0.57" stop-color="#d8f3fa"/><stop offset="0.57" stop-color="#d7f2fa"/><stop offset="0.58" stop-color="#d7f2fa"/><stop offset="0.59" stop-color="#d7f2fa"/><stop offset="0.59" stop-color="#d6f2fa"/><stop offset="0.6" stop-color="#d6f2fa"/><stop offset="0.61" stop-color="#d5f1fa"/><stop offset="0.62" stop-color="#d4f1f9"/><stop offset="0.62" stop-color="#d3f1f9"/><stop offset="0.63" stop-color="#d3f1f9"/><stop offset="0.64" stop-color="#d3f1f9"/><stop offset="0.65" stop-color="#d2f1f9"/><stop offset="0.66" stop-color="#d2f0f9"/><stop offset="0.66" stop-color="#d1f0f9"/><stop offset="0.67" stop-color="#d0f0f9"/><stop offset="0.68" stop-color="#d0f0f9"/><stop offset="0.69" stop-color="#cff0f9"/><stop offset="0.7" stop-color="#cfeff9"/><stop offset="0.71" stop-color="#ceeff9"/><stop offset="0.72" stop-color="#cdeff9"/><stop offset="0.75" stop-color="#cdeff9"/><stop offset="0.88" stop-color="#cceff9"/><stop offset="1" stop-color="#cceef9"/></linearGradient><clipPath id="clip-path"><rect class="cls-2" x="272.32" y="297.17" width="359.7" height="258.44"/></clipPath><clipPath id="clip-path-2"><rect class="cls-2" x="89.18" y="455.7" width="323.03" height="99.91"/></clipPath><clipPath id="clip-path-3"><rect class="cls-3" x="445.51" y="465.02" width="149.21" height="45.29"/></clipPath><clipPath id="clip-path-4"><path class="cls-3" d="M612,246.28a18.15,18.15,0,0,0-7,1.41,18.36,18.36,0,0,0-6,4,18.49,18.49,0,0,0-5.39,13.06V491.53a18.88,18.88,0,0,1-2.1,8.59,18.91,18.91,0,0,1-5.81,6.67,19.23,19.23,0,0,1-3.92,2.11,18.8,18.8,0,0,1-4.3,1.13,18.75,18.75,0,0,1-8.79-.89L428.89,459.43a39.72,39.72,0,0,0-22.84-1.28V264.75a18.42,18.42,0,0,1,18.43-18.45Z"/></clipPath><clipPath id="clip-path-5"><rect class="cls-3" x="445.51" y="494.33" width="149.21" height="15.99"/></clipPath><mask id="mask" x="-49.41" y="-218.67" width="951.15" height="1346.4" maskUnits="userSpaceOnUse"><g id="id49"><rect class="cls-1" x="-49.41" y="-218.67" width="951.15" height="1346.4"/></g></mask><clipPath id="clip-path-7"><rect class="cls-2" x="421.53" y="267.86" width="161.2" height="102.58"/></clipPath></defs><path class="cls-4" d="M709.94,388.27s31.36-166-54.06-260.14C580.48,45,461.14,12.71,363.81,81.34c-34.6,24.48-59.92,72-100.42,86.74-45.41,16.49-103.79,22.43-146,93s-27,161.3,29.19,209.59,154.63,1.17,243.28-2.36S663.46,593.13,709.94,388.27Z"/><path class="cls-5" d="M425.58,141.54h98.93v28.17H425.58a7.35,7.35,0,0,1-1.55-.16,7.64,7.64,0,0,1-1.5-.45,8,8,0,0,1-1.39-.74,8.46,8.46,0,0,1-2.2-2.21,8,8,0,0,1-.74-1.38,8.94,8.94,0,0,1-.46-1.5,9.16,9.16,0,0,1-.15-1.56V149.53a8.26,8.26,0,0,1,.16-1.56,7.85,7.85,0,0,1,.45-1.5,9.22,9.22,0,0,1,.75-1.38,8.17,8.17,0,0,1,1-1.21,7.69,7.69,0,0,1,1.21-1,7.61,7.61,0,0,1,1.38-.74,8.41,8.41,0,0,1,1.5-.46A8.94,8.94,0,0,1,425.58,141.54Z"/><path class="cls-5" d="M524.51,106.41H431.66a14.87,14.87,0,0,0-2.74.26,15.06,15.06,0,0,0-2.63.8,14.43,14.43,0,0,0-2.42,1.3,13.7,13.7,0,0,0-2.12,1.75,13.63,13.63,0,0,0-3,4.55,13.41,13.41,0,0,0-.8,2.64,13.89,13.89,0,0,0-.27,2.73,14.06,14.06,0,0,0,.27,2.74,13.52,13.52,0,0,0,.8,2.63,13.81,13.81,0,0,0,3,4.56,14.15,14.15,0,0,0,4.54,3,14.25,14.25,0,0,0,2.63.8,14.06,14.06,0,0,0,2.74.27h92.85Z"/><path class="cls-6" d="M533,74h33.76v94.35H533Z"/><path class="cls-6" d="M575.16,74h33.76v94.35H575.16Z"/><path class="cls-6" d="M617.36,74h33.76v94.35H617.36Z"/><path class="cls-7" d="M671.51,170.89H406.39v15.73h21.52v39h12.8v-39H631v39h12.8v-39h27.76Z"/><path class="cls-7" d="M354.85,217.68a83.69,83.69,0,0,0-8.86,3.45c1.56-1.17,3.12-2.36,4.67-3.59a221.28,221.28,0,0,0,20.06-18.17,216.47,216.47,0,0,1-23.75,20,53.51,53.51,0,0,0,3-6.23c1.56-3.93,1.86-7.8-1.9-10-4.67-2.59-10.21,1.29-8.72,8a23.72,23.72,0,0,0,5.08,10,150.12,150.12,0,0,1-17,10.23l-.55.28a53.93,53.93,0,0,0,3.28-6.7c1.56-3.93,1.87-7.88-1.88-10-4.68-2.6-10.22,1.28-8.73,8a23.8,23.8,0,0,0,5,9.91c-7.09,3.5-14.41,6.46-21.7,9.69l-1.06.48a48.44,48.44,0,0,0,4-4.86c2.37-3.48,3.65-7.24.49-10.17-3.88-3.61-10.24-1.13-10.35,5.71a24.31,24.31,0,0,0,2.57,10.91A111.08,111.08,0,0,0,279.12,256l-.18.14a35.55,35.55,0,0,0,2.22-4c1.8-3.8,2.45-7.79-1.13-10.1a5.07,5.07,0,0,0-1.17-.63,5.64,5.64,0,0,0-1.28-.35,5.31,5.31,0,0,0-1.32-.05,5.63,5.63,0,0,0-1.3.24,5.77,5.77,0,0,0-1.22.53,5.9,5.9,0,0,0-1.06.8,5.54,5.54,0,0,0-.86,1,5.73,5.73,0,0,0-.61,1.18,5.15,5.15,0,0,0-1.88-1.8c-3.62-2.09-7.17.18-10.21,3.37-.79.83-1.56,1.72-2.26,2.62a110.94,110.94,0,0,1,8.84-18.82,26.53,26.53,0,0,0,10.6,2.28c7.2,0,10.24-6,6.71-9.74-2.87-3-6.92-1.87-10.74.33-1.26.74-2.49,1.56-3.65,2.4A108.85,108.85,0,0,1,281.09,210a26.63,26.63,0,0,0,10.25,5.16c7,1.74,11.39-3.35,8.85-7.79-2.06-3.64-6.23-3.5-10.5-2.28a50.83,50.83,0,0,0-5.86,2.17c1.9-1.86,3.88-3.65,5.87-5.41q4-3.37,8.11-6.52a26.76,26.76,0,0,0,10.09,5c7,1.74,11.37-3.35,8.85-7.8-2.06-3.63-6.23-3.47-10.5-2.25-1,.28-2,.62-2.95,1,3.65-2.61,7.36-5.15,11.07-7.69l3.42-2.34a27,27,0,0,0,10.63,5.46c7,1.73,11.37-3.36,8.84-7.8-2.05-3.65-6.23-3.49-10.49-2.28a44.28,44.28,0,0,0-4.88,1.75c.71-.5,1.42-1,2.12-1.56,1.31-.93,2.59-1.89,3.86-2.87,1.56-1.19,3.12-2.51,4.67-3.76.88-.7,1.72-1.45,2.56-2.21a26.39,26.39,0,0,0,10.67,5.52c7,1.73,11.39-3.34,8.87-7.8-2.06-3.63-6.23-3.49-10.52-2.28a60.62,60.62,0,0,0-6.87,2.61c2.85-2.65,5.61-5.42,8.23-8.3.18-.2.34-.41.51-.61,1.14-1.25,2.24-2.51,3.32-3.8s2.45-3.12,3.63-4.68a89.57,89.57,0,0,0,11.73-20.54,87.76,87.76,0,0,1-12.14,20.27,127.66,127.66,0,0,1-16.2,17.16l-.64.54a60.3,60.3,0,0,0,3.59-7.25c1.55-3.93,1.87-7.87-1.89-10-4.67-2.59-10.22,1.27-8.72,7.95a24.26,24.26,0,0,0,5.53,10.57l-1.39,1.19c-.55.45-1.1.92-1.67,1.36-.92.75-1.85,1.46-2.79,2.16l-1.55,1.16c-1.34,1-2.71,2-4.09,2.92l-2.13,1.3L318.34,179a57.8,57.8,0,0,0,3.44-7c1.56-3.93,1.87-7.87-1.88-10-4.68-2.6-10.22,1.28-8.74,8a24.24,24.24,0,0,0,5.29,10.28l-1.66,1.08-6.24,4-1.19.79c-1.16.75-2.29,1.56-3.43,2.29-.5.33-1,.66-1.48,1-1.56,1.1-3.2,2.2-4.77,3.34a59.68,59.68,0,0,0,3.5-7.08c1.57-3.93,1.87-7.89-1.88-10-4.67-2.6-10.22,1.28-8.74,7.94A24.29,24.29,0,0,0,296,194c-2.68,2-5.32,4-7.91,6.1-1.87,1.56-3.72,3.21-5.53,4.86a43.86,43.86,0,0,0,2.11-4.5c1.55-3.93,1.86-7.8-1.89-10-4.67-2.59-10.22,1.28-8.74,7.95a24.13,24.13,0,0,0,5,9.93A110.22,110.22,0,0,0,265.25,225a42.59,42.59,0,0,0,1-5.24c.51-4.18-.1-8.11-4.24-9.25-5.11-1.41-9.61,3.71-6.56,9.82a24.17,24.17,0,0,0,7.32,8.49,114.47,114.47,0,0,0-9.9,20.49,39.18,39.18,0,0,0-.46-4.46c-.7-4.15-2.38-7.8-6.68-7.66-5.3.1-8.16,6.24-3.51,11.28a23.79,23.79,0,0,0,8.89,5.86,147.08,147.08,0,0,0-4.4,16.86c-.17.9-.32,1.81-.48,2.72a4,4,0,0,0-.56.53c-.19-.78-.41-1.56-.66-2.33-1.33-4-3.55-7.28-7.79-6.53-5.22.92-7.08,7.47-1.72,11.68a23.52,23.52,0,0,0,9.23,4.32,3,3,0,0,0,.19.45q-.87,6.44-1.28,12.93c-.19,3.23-.32,6.46-.39,9.72-4.51,0-7.79,4.94-4.57,10.32a22.36,22.36,0,0,0,4.95,5.88c.38,6.08,1,12.17,1.79,18.2a4.84,4.84,0,0,0-2.27-1.19,4.94,4.94,0,0,0-2.56.08c-2.85.77-4.13,3.12-4.58,5.88a5.53,5.53,0,0,0-1.56,3.89c-2.12-3.12-4.11-6.38-6-9.66a26.47,26.47,0,0,0,7.19-8.42c3.4-6.35-.42-11.87-5.37-10.51-4,1.09-4.92,5.21-4.8,9.62a46.28,46.28,0,0,0,.47,5L224,330c-1.75-3.13-3.22-6.24-4.86-9.49-.42-.77-.78-1.56-1.12-2.35a26.64,26.64,0,0,0,8.65-6.91c4.51-5.6,1.79-11.75-3.32-11.34-4.18.31-5.82,4.19-6.51,8.55a47.82,47.82,0,0,0-.52,5.74l-1.56-3.44a175.92,175.92,0,0,1-7.78-23.9,27,27,0,0,0,10-6.24c5.06-5.13,3-11.51-2.17-11.64-4.18-.09-6.23,3.6-7.34,7.8a56.51,56.51,0,0,0-1.24,6.95c-1.11-4.67-2.06-9.35-2.84-14.14-.55-3-.89-5.93-1.26-8.9a26.42,26.42,0,0,0,11.15-5c5.69-4.42,4.43-11-.65-11.81-4.11-.64-6.61,2.76-8.29,6.85a66.29,66.29,0,0,0-2.46,7.94c-.33-3.46-.69-6.91-.84-10.37a158.44,158.44,0,0,1,.09-21.46,160.59,160.59,0,0,0-.75,21.49c0,3.3.28,6.6.49,9.9a52.12,52.12,0,0,0-3.12-6.53c-2.15-3.62-5-6.35-9-4.68-4.91,2-5.33,8.82.81,11.79a24.33,24.33,0,0,0,11.56,2.2c.28,2.95.53,5.89,1,8.81.62,4.68,1.42,9.36,2.34,13.89a44.76,44.76,0,0,0-3.35-5.06c-2.62-3.31-5.81-5.65-9.55-3.51-4.67,2.63-4.14,9.43,2.34,11.57a24.12,24.12,0,0,0,11.35.77,178.49,178.49,0,0,0,7.09,24.25l.94,2.37a32.69,32.69,0,0,0-2.7-3.12c-2.93-3-6.34-5-9.85-2.53-4.31,3.12-3.11,9.81,3.48,11.29a24.25,24.25,0,0,0,11.14-.32c.32.8.65,1.55,1,2.41,1.56,3.24,3,6.58,4.68,9.78.46.92.94,1.82,1.43,2.73-.82-.7-1.68-1.39-2.57-2-3.43-2.43-7.17-3.76-10.15-.64-3.64,3.83-1.27,10.23,5.55,10.43a23.93,23.93,0,0,0,10.21-2.1c1.94,3.54,4,7,6.14,10.46.8,1.31,1.65,2.6,2.49,3.9a41.63,41.63,0,0,0-3.91-3.23c-3.44-2.43-7.19-3.76-10.15-.64-3.65,3.84-1.29,10.23,5.54,10.44a24.22,24.22,0,0,0,11.24-2.59q1.69,2.34,3.51,4.67c-2.54,3-1.71,8,3.44,10.17a22.94,22.94,0,0,0,8,1.75,11.43,11.43,0,0,0,1,.75l.17.12c1.2,4.49,2.51,8.95,3.88,13.38H233.65v73.48h57.89V389.16h-27c-2.32-7.94-4.26-14.85-4.67-15l-.81-.39a26,26,0,0,0,8.34-4.68c5.48-4.67,3.92-11.21-1.18-11.76-4.15-.46-6.49,3-8,7.21a37.7,37.7,0,0,0-1.09,3.62c-.3-1.11-.59-2.21-.87-3.32-.84-3.28-1.56-6.59-2.34-9.87a26.52,26.52,0,0,0,9-5c5.49-4.68,3.93-11.2-1.17-11.76-4.16-.45-6.48,3.12-8,7.21-.43,1.21-.8,2.43-1.11,3.68-.48-2.41-.94-4.81-1.35-7.23q-.47-2.7-.86-5.39c-.11-2.56-.14-5.13-.11-7.69,0-1.42,0-2.82.12-4.24a25.94,25.94,0,0,0,9.58,1.23c7.2-.47,9.85-6.62,6.09-10.14-3.11-2.83-7-1.43-10.7,1a52.82,52.82,0,0,0-4.67,3.65,113.83,113.83,0,0,1,2.74-17.9,97.08,97.08,0,0,1,3-10.2,26.62,26.62,0,0,0,10.28,1.43c7.19-.45,9.85-6.62,6.1-10.12-3.12-2.85-7-1.43-10.71,1a43.29,43.29,0,0,0-3.76,2.86,73.47,73.47,0,0,1,4.83-9.48A68.37,68.37,0,0,1,277,261.54a26.7,26.7,0,0,0,9.55,5.66c6.85,2.25,11.6-2.5,9.35-7.14-1.78-3.78-6-3.95-10.31-3.12a47.67,47.67,0,0,0-4.85,1.34h.11a108.42,108.42,0,0,1,18.9-11.89,26.68,26.68,0,0,0,8.81,7.48c6.41,3.3,11.86-.6,10.44-5.54-1.15-4-5.28-4.85-9.69-4.68a44.75,44.75,0,0,0-5.16.58c7.12-3.37,14.38-6.55,21.39-10.26l.16-.08a26.78,26.78,0,0,0,10.91,5.69c7,1.73,11.38-3.36,8.84-7.8-2-3.65-6.23-3.49-10.5-2.28-1.18.33-2.35.77-3.5,1.2A155.87,155.87,0,0,0,345,221.83l.38.39a.49.49,0,0,1,0-.17,26.9,26.9,0,0,0,10.9,5.77c7,1.71,11.39-3.36,8.87-7.8C363.24,216.4,359,216.4,354.85,217.68ZM244.48,360.87c-1.42-1.67-2.79-3.42-4.12-5.18.33-.3.68-.62,1-1a24.14,24.14,0,0,0,6.07,1.1v.32l1-.18c.5,2.47,1,5,1.56,7.45a6.56,6.56,0,0,0-5.57-2.54Zm5.15-59.48c-.48,1.85-.9,3.72-1.29,5.59l-.23-.32q0-5.78.17-11.53c.11-2.7.31-5.38.55-8a24.83,24.83,0,0,0,4.25,3.53,101.77,101.77,0,0,0-3.51,10.77Zm6.49-17.71c0-.7.15-1.41.2-2.1v-1.06c.56-.17,1.13-.38,1.71-.61-.72,1.25-1.32,2.5-2,3.77Zm8.2-13.36a4.86,4.86,0,0,0-2.88-2.72c-3.89-1.55-7.06,1.28-9.56,4.9l-.13.19-.25-.08-.81-.11a5,5,0,0,1,.11-.66,142.22,142.22,0,0,1,4-16.87,26.68,26.68,0,0,0,10.81-.84,9,9,0,0,0,5.3-3.66,24.57,24.57,0,0,0,3.89,8.85,75.4,75.4,0,0,0-10.58,11Z"/><path class="cls-8" d="M387,243.32H664a12.36,12.36,0,0,1,2.43.24,12.64,12.64,0,0,1,2.34.71,13.55,13.55,0,0,1,2.16,1.15A13.31,13.31,0,0,1,672.8,247a12.1,12.1,0,0,1,1.55,1.88,13.23,13.23,0,0,1,1.16,2.16,12.71,12.71,0,0,1,.7,2.35,12.36,12.36,0,0,1,.24,2.43V450.34H374.62V255.75a13.16,13.16,0,0,1,.25-2.42,12.35,12.35,0,0,1,1.86-4.47,12.72,12.72,0,0,1,3.43-3.43,12.15,12.15,0,0,1,2.13-1.15,12.78,12.78,0,0,1,2.33-.71A12.35,12.35,0,0,1,387,243.32Z"/><path class="cls-9" d="M721.68,541.84H329.35l45.27-91.51H676.41Z"/><path class="cls-7" d="M392.9,259.71H658.13V433.93H392.9Z"/><path class="cls-10" d="M512.92,479.28l.53-11.14h-16l-1.06,11.14Z"/><path class="cls-10" d="M545.88,479.28l-.54-11.14h-16v11.14Z"/><path class="cls-10" d="M631.71,491.22h17l-4-11.94H628.28Z"/><path class="cls-10" d="M496.44,479.28l1.06-11.14H481.56L480,479.28Z"/><path class="cls-10" d="M463.49,479.28l2.12-11.14H449.67L447,479.28Z"/><path class="cls-10" d="M611.8,479.28l-2.68-11.14H593.18l2.14,11.14Z"/><path class="cls-10" d="M628.28,479.28l-3.21-11.14h-16l2.68,11.14Z"/><path class="cls-10" d="M447,479.28l2.66-11.14H433.72l-3.2,11.14Z"/><path class="cls-10" d="M562.35,479.28l-1.07-11.14H545.34l.54,11.14Z"/><path class="cls-10" d="M644.75,479.28,641,468.14H625.07l3.21,11.14Z"/><path class="cls-10" d="M595.32,479.28l-2.14-11.14H577.23l1.61,11.14Z"/><path class="cls-10" d="M578.84,479.28l-1.61-11.14h-16l1.07,11.14Z"/><path class="cls-10" d="M529.4,479.28V468.14H513.45l-.53,11.14Z"/><path class="cls-10" d="M414.05,479.28H397.57L393,491.22h17Z"/><path class="cls-10" d="M417.77,468.14H401.83l-4.26,11.14h16.48Z"/><path class="cls-10" d="M430.52,479.28l3.2-11.14h-16l-3.72,11.14Z"/><path class="cls-10" d="M388.15,504l-5.25,13.72h18.32L405.8,504Z"/><path class="cls-10" d="M410.07,491.22H393L388.15,504H405.8Z"/><path class="cls-10" d="M405.8,504l-4.58,13.72h18.32L423.46,504Z"/><path class="cls-10" d="M480,479.28l1.59-11.14H465.61l-2.12,11.14Z"/><path class="cls-10" d="M478.26,491.22,480,479.28H463.49l-2.28,11.94Z"/><path class="cls-10" d="M461.21,491.22l2.28-11.94H447l-2.84,11.94Z"/><path class="cls-10" d="M495.32,491.22l1.12-11.94H480l-1.71,11.94Z"/><path class="cls-10" d="M430.52,479.28H414.05l-4,11.94h17Z"/><path class="cls-10" d="M635.39,504h17.67l-4.31-12.77h-17Z"/><path class="cls-10" d="M444.17,491.22,447,479.28H430.52l-3.41,11.94Z"/><path class="cls-10" d="M410.07,491.22,405.8,504h17.66l3.65-12.77Z"/><path class="cls-10" d="M597.61,491.22l-2.29-11.94H578.84l1.72,11.94Z"/><path class="cls-10" d="M580.56,491.22l-1.72-11.94H562.35l1.15,11.94Z"/><path class="cls-10" d="M631.71,491.22l-3.43-11.94H611.8l2.85,11.94Z"/><path class="cls-10" d="M529.42,491.22l0-11.94H512.92l-.56,11.94Z"/><path class="cls-10" d="M563.5,491.22l-1.15-11.94H545.88l.58,11.94Z"/><path class="cls-10" d="M546.46,491.22l-.58-11.94H529.4l0,11.94Z"/><path class="cls-10" d="M512.36,491.22l.56-11.94H496.44l-1.12,11.94Z"/><path class="cls-10" d="M563.5,491.22,564.75,504H582.4l-1.84-12.77Z"/><path class="cls-10" d="M580.56,491.22,582.4,504h17.67l-2.46-12.77Z"/><path class="cls-10" d="M427.11,491.22,423.46,504h17.67l3-12.77Z"/><path class="cls-10" d="M597.61,491.22,600.07,504h17.65l-3.07-12.77Z"/><path class="cls-10" d="M529.42,491.22V504h17.67l-.63-12.77Z"/><path class="cls-10" d="M614.65,491.22,617.72,504h17.67l-3.68-12.77Z"/><path class="cls-10" d="M546.46,491.22l.63,12.77h17.66l-1.25-12.77Z"/><path class="cls-10" d="M461.21,491.22,458.78,504h17.67l1.81-12.77Z"/><path class="cls-10" d="M444.17,491.22l-3,12.77h17.65l2.43-12.77Z"/><path class="cls-10" d="M512.36,491.22,511.77,504h17.65V491.22Z"/><path class="cls-10" d="M495.32,491.22,494.1,504h17.67l.59-12.77Z"/><path class="cls-10" d="M478.26,491.22,476.45,504H494.1l1.22-12.77Z"/><path class="cls-10" d="M614.65,491.22l-2.85-11.94H595.32l2.29,11.94Z"/><path class="cls-10" d="M417.77,468.14l3.81-11.42H406.17l-4.34,11.42Z"/><path class="cls-10" d="M401.83,468.14H387.1l-4.75,11.14h15.22Z"/><path class="cls-10" d="M406.17,456.72H392l-4.86,11.42h14.73Z"/><path class="cls-10" d="M397.57,479.28H382.35l-5.06,11.94H393Z"/><path class="cls-10" d="M393,491.22H377.29L371.83,504h16.32Z"/><path class="cls-10" d="M388.15,504H371.83L366,517.71h16.9Z"/><path class="cls-10" d="M661.23,479.28l4.58,11.94h15.08l-5.08-11.94Z"/><path class="cls-10" d="M670.7,504h15.63l-5.44-12.77H665.81Z"/><path class="cls-10" d="M676,517.71h16.2L686.33,504H670.7Z"/><path class="cls-10" d="M545.34,468.14l-.56-11.42H529.39v11.42Z"/><path class="cls-10" d="M661.23,479.28h14.58l-4.75-11.14H657Z"/><path class="cls-10" d="M653.06,504H670.7l-4.89-12.77H648.75Z"/><path class="cls-10" d="M433.72,468.14,437,456.72H421.58l-3.81,11.42Z"/><path class="cls-10" d="M641,468.14l3.74,11.14h16.48L657,468.14Z"/><path class="cls-10" d="M671.06,468.14l-4.86-11.42H652.59L657,468.14Z"/><path class="cls-10" d="M657,468.14l-4.37-11.42H637.18L641,468.14Z"/><path class="cls-10" d="M600.07,504l2.63,13.72H621L617.72,504Z"/><path class="cls-10" d="M657.65,517.71H676L670.7,504H653.06Z"/><path class="cls-10" d="M641,468.14l-3.83-11.42h-15.4l3.29,11.42Z"/><path class="cls-10" d="M635.39,504l4,13.72h18.31L653.06,504Z"/><path class="cls-10" d="M617.72,504l3.3,13.72h18.32l-4-13.72Z"/><path class="cls-10" d="M648.75,491.22h17.06l-4.58-11.94H644.75Z"/><path class="cls-10" d="M497.5,468.14l1.09-11.42H483.18l-1.62,11.42Z"/><path class="cls-10" d="M625.07,468.14l-3.29-11.42h-15.4l2.74,11.42Z"/><path class="cls-10" d="M481.56,468.14l1.62-11.42H467.79l-2.18,11.42Z"/><path class="cls-10" d="M529.39,468.14V456.72H514l-.53,11.42Z"/><path class="cls-10" d="M465.61,468.14l2.18-11.42H452.38l-2.71,11.42Z"/><path class="cls-10" d="M449.67,468.14l2.71-11.42H437l-3.25,11.42Z"/><path class="cls-10" d="M513.45,468.14l.53-11.42H498.59l-1.09,11.42Z"/><path class="cls-10" d="M609.12,468.14l-2.74-11.42H591l2.19,11.42Z"/><path class="cls-10" d="M593.18,468.14,591,456.72H575.58l1.65,11.42Z"/><path class="cls-10" d="M561.28,468.14l-1.09-11.42H544.78l.56,11.42Z"/><path class="cls-10" d="M600.07,504H423.46l-3.92,13.72H602.7Z"/><path class="cls-10" d="M577.23,468.14l-1.65-11.42H560.19l1.09,11.42Z"/><path class="cls-8" d="M329.35,541.83h392.5v5.57H329.35Z"/><g class="cls-11"><g class="cls-12"><path d="M630.46,299.45V449.31L587,506.09l-7.32,2.75-223.22,33v7.33l-81.76,4.4V473.13h139.4V298.73Z"/></g></g><path class="cls-13" d="M224.52,457.05c-10.05.5-20.94,8.17-20.94,8.17L90,553.54H274.65s116.58-88.07,120.07-90.6c5.53-4,16.5-6,16.5-6l-5.19.13Z"/><g class="cls-14"><path class="cls-15" d="M224.52,457.05c-10.05.5-20.94,8.17-20.94,8.17L90,553.54H274.65s116.58-88.07,120.07-90.6c5.53-4,16.5-6,16.5-6l-5.19.13Z"/></g><path class="cls-15" d="M630.46,299.59H402.2"/><path class="cls-13" d="M612,246.28a18.58,18.58,0,0,0-7,1.41,17.47,17.47,0,0,0-3.19,1.71,18.06,18.06,0,0,0-2.8,2.29,18.66,18.66,0,0,0-2.29,2.8,18.42,18.42,0,0,0-1.7,3.19,18.42,18.42,0,0,0-1.4,7.07V491.53a18.53,18.53,0,0,1-.13,2.23,16.54,16.54,0,0,1-.41,2.19,17.45,17.45,0,0,1-.65,2.13,20.75,20.75,0,0,1-.91,2,21.39,21.39,0,0,1-1.14,1.91A18.15,18.15,0,0,1,589,503.8a19.51,19.51,0,0,1-1.56,1.59,19.72,19.72,0,0,1-1.74,1.4,21.48,21.48,0,0,1-1.9,1.17,16.82,16.82,0,0,1-2,.94,21,21,0,0,1-2.12.7,20,20,0,0,1-2.18.43,18.44,18.44,0,0,1-2.23.17,16.49,16.49,0,0,1-2.22-.09,16.27,16.27,0,0,1-2.2-.36,17.43,17.43,0,0,1-2.14-.61L428.89,459.43a40.65,40.65,0,0,0-22.84-1.28V264.75a18.32,18.32,0,0,1,1.4-7.06,18.42,18.42,0,0,1,1.7-3.19,18.87,18.87,0,0,1,5.09-5.09,18.47,18.47,0,0,1,3.19-1.71,18.22,18.22,0,0,1,7.05-1.4Z"/><rect class="cls-3" x="445.51" y="465.02" width="149.21" height="45.29"/><g class="cls-16"><path class="cls-3" d="M612,246.28a18.15,18.15,0,0,0-7,1.41,18.36,18.36,0,0,0-6,4,18.49,18.49,0,0,0-5.39,13.06V491.53a18.88,18.88,0,0,1-2.1,8.59,18.91,18.91,0,0,1-5.81,6.67,19.23,19.23,0,0,1-3.92,2.11,18.8,18.8,0,0,1-4.3,1.13,18.75,18.75,0,0,1-8.79-.89L428.89,459.43a39.72,39.72,0,0,0-22.84-1.28V264.75a18.42,18.42,0,0,1,18.43-18.45Z"/><g class="cls-17"><path class="cls-3" d="M446.05,465.55l122.61,43.59a17.58,17.58,0,0,0,2.15.61,16.13,16.13,0,0,0,2.19.36,16.64,16.64,0,0,0,2.23.09,18.28,18.28,0,0,0,2.22-.17,20.18,20.18,0,0,0,2.19-.43,21.72,21.72,0,0,0,2.11-.7,17,17,0,0,0,2-.94q1-.54,1.89-1.17a19.57,19.57,0,0,0,3.31-3,18.06,18.06,0,0,0,1.36-1.77,17.5,17.5,0,0,0,1.14-1.91,18.63,18.63,0,0,0,.91-2,20.15,20.15,0,0,0,.66-2.13,18.31,18.31,0,0,0,.4-2.19,18.54,18.54,0,0,0,.14-2.23v-26Z"/></g></g><rect class="cls-3" x="445.51" y="494.33" width="149.21" height="15.99"/><g class="cls-18"><path class="cls-3" d="M612,246.28a18.15,18.15,0,0,0-7,1.41,18.36,18.36,0,0,0-6,4,18.49,18.49,0,0,0-5.39,13.06V491.53a18.88,18.88,0,0,1-2.1,8.59,18.91,18.91,0,0,1-5.81,6.67,19.23,19.23,0,0,1-3.92,2.11,18.8,18.8,0,0,1-4.3,1.13,18.75,18.75,0,0,1-8.79-.89L428.89,459.43a39.72,39.72,0,0,0-22.84-1.28V264.75a18.42,18.42,0,0,1,18.43-18.45Z"/><g class="cls-17"><path class="cls-3" d="M446.05,495.41l122.61,43.67a17.62,17.62,0,0,0,2.15.62,19.78,19.78,0,0,0,2.2.36,20.6,20.6,0,0,0,2.22.09,16.62,16.62,0,0,0,2.23-.18,20,20,0,0,0,2.18-.43,17,17,0,0,0,2.12-.7,18.52,18.52,0,0,0,2-.94,19.44,19.44,0,0,0,1.9-1.18,16.56,16.56,0,0,0,1.74-1.39,18.48,18.48,0,0,0,4.07-5.28,21.68,21.68,0,0,0,.91-2,18.15,18.15,0,0,0,.65-2.14,16.22,16.22,0,0,0,.4-2.19,18.54,18.54,0,0,0,.14-2.23V495.41Z"/></g></g><path class="cls-15" d="M612,246.28a18.53,18.53,0,0,0-10.25,3.12,18.47,18.47,0,0,0-2.79,2.29,18.66,18.66,0,0,0-2.29,2.8,18.42,18.42,0,0,0-1.7,3.19,18.42,18.42,0,0,0-1.4,7.07V491.53a18.53,18.53,0,0,1-.13,2.23,16.54,16.54,0,0,1-.41,2.19,17.45,17.45,0,0,1-.65,2.13,20.75,20.75,0,0,1-.91,2,21.39,21.39,0,0,1-1.14,1.91A18.15,18.15,0,0,1,589,503.8a19.51,19.51,0,0,1-1.56,1.59,19.72,19.72,0,0,1-1.74,1.4,21.48,21.48,0,0,1-1.9,1.17,16.82,16.82,0,0,1-2,.94,21,21,0,0,1-2.12.7,20,20,0,0,1-2.18.43,18.44,18.44,0,0,1-2.23.17,16.49,16.49,0,0,1-2.22-.09,16.27,16.27,0,0,1-2.2-.36,17.43,17.43,0,0,1-2.14-.61L428.89,459.43a40.65,40.65,0,0,0-22.84-1.28V264.75a18.32,18.32,0,0,1,1.4-7.06,18.42,18.42,0,0,1,1.7-3.19,18.87,18.87,0,0,1,5.09-5.09,18.47,18.47,0,0,1,3.19-1.71,18.22,18.22,0,0,1,7.05-1.4Z"/><path class="cls-15" d="M414,457.05h-8"/><path class="cls-3" d="M574.94,510.25H387.37a18.38,18.38,0,0,1-6.23-1.11l-32.39-11.4,40.27-31a41.21,41.21,0,0,1,4.27-3.15,40,40,0,0,1,9.57-4.51,40.64,40.64,0,0,1,10.4-1.9,39.08,39.08,0,0,1,5.3.09,40.34,40.34,0,0,1,5.24.76,41.1,41.1,0,0,1,5.1,1.44l139.79,49.71A18.5,18.5,0,0,0,574.94,510.25Z"/><path class="cls-15" d="M574.94,510.25H387.37a18.38,18.38,0,0,1-6.23-1.11l-32.39-11.4,40.27-31a41.21,41.21,0,0,1,4.27-3.15,41.7,41.7,0,0,1,4.63-2.57,41.16,41.16,0,0,1,4.94-1.94,40.64,40.64,0,0,1,10.4-1.9,39.08,39.08,0,0,1,5.3.09,40.34,40.34,0,0,1,5.24.76,41.1,41.1,0,0,1,5.1,1.44l139.79,49.71A18.5,18.5,0,0,0,574.94,510.25Z"/><path class="cls-15" d="M387.37,510.25H387"/><path class="cls-15" d="M575.3,510.25h-.36"/><path class="cls-19" d="M625.06,251.7a18.07,18.07,0,0,0-6-4,18.37,18.37,0,0,0-7.06-1.4c-19.19,0-18.43,18.46-18.43,18.46v34.71h36.86v-34.7a18.39,18.39,0,0,0-5.4-13.05Z"/><path class="cls-15" d="M625.06,251.7a18.17,18.17,0,0,0-6-4,18.37,18.37,0,0,0-7.06-1.4c-19.19,0-18.43,18.46-18.43,18.46v34.71h36.86v-34.7a18.39,18.39,0,0,0-5.4-13.05Z"/><g class="cls-20"><g class="cls-21"><path d="M423.25,278.07v90.52h17.8V269.88h-17.8Z"/><path d="M563.64,269.88H441.29v8.52H581.08v-8.52Z"/></g></g><path class="cls-22" d="M423.24,269.88h17.81v8.53H423.24Z"/><path class="cls-22" d="M423.24,278.07h17.81v8.53H423.24Z"/><path class="cls-22" d="M423.24,286.27h17.81v8.53H423.24Z"/><path class="cls-22" d="M423.24,294.47h17.81V303H423.24Z"/><path class="cls-22" d="M423.24,302.67h17.81v8.52H423.24Z"/><path class="cls-22" d="M423.24,310.87h17.81v8.53H423.24Z"/><path class="cls-22" d="M423.24,319.07h17.81v8.53H423.24Z"/><path class="cls-22" d="M423.24,327.26h17.81v8.53H423.24Z"/><path class="cls-22" d="M423.24,335.46h17.81V344H423.24Z"/><path class="cls-22" d="M423.24,343.67h17.81v8.52H423.24Z"/><path class="cls-22" d="M423.24,351.85h17.81v8.53H423.24Z"/><path class="cls-22" d="M423.24,360.06h17.81v8.53H423.24Z"/><path class="cls-22" d="M441.29,269.88H459.1v8.53H441.29Z"/><path class="cls-22" d="M458.71,269.88h17.8v8.53h-17.8Z"/><path class="cls-22" d="M476.14,269.88H494v8.53H476.14Z"/><path class="cls-22" d="M493.56,269.88h17.8v8.53h-17.8Z"/><path class="cls-22" d="M511,269.88h17.8v8.53H511Z"/><path class="cls-22" d="M528.4,269.88h17.81v8.53H528.4Z"/><path class="cls-22" d="M545.84,269.88h17.8v8.53h-17.8Z"/><path class="cls-22" d="M563.27,269.88h17.81v8.53H563.27Z"/><path class="cls-22" d="M441.05,278.4h140v90.17h-140Z"/><path class="cls-22" d="M458.86,278.4v90.15"/><path class="cls-22" d="M476.29,278.4v90.15"/><path class="cls-22" d="M493.73,278.4v90.15"/><path class="cls-22" d="M511.16,278.4v90.15"/><path class="cls-22" d="M528.57,278.4v90.15"/><path class="cls-22" d="M546,278.4v90.15"/><path class="cls-22" d="M563.44,278.4v90.15"/><path class="cls-22" d="M441.05,286.6H581"/><path class="cls-22" d="M441.05,294.77H581"/><path class="cls-22" d="M441.05,303H581"/><path class="cls-22" d="M441.05,311.12H581"/><path class="cls-22" d="M441.05,319.29H581"/><path class="cls-22" d="M441.05,327.45H581"/><path class="cls-22" d="M441.05,335.62H581"/><path class="cls-22" d="M441.05,343.79H581"/><path class="cls-22" d="M441.05,352H581"/><path class="cls-22" d="M441.05,360.13H581"/><path class="cls-23" d="M351.8,479H201.7l10.36-7.88h150.1Z"/><path class="cls-23" d="M122.26,542.23h-3.67l93.47-71.1h3.69Z"/><path class="cls-24" d="M318.73,504.12H168.64l11.73-8.8H330.46Z"/><path class="cls-22" d="M268.21,542.59H118.1l94-71.46h150.1Z"/><path class="cls-22" d="M227.53,471.4,134,542.55"/><path class="cls-22" d="M242.61,471.4l-93.56,71.15"/><path class="cls-22" d="M257.67,471.4l-93.55,71.15"/><path class="cls-22" d="M272.75,471.4,179.2,542.55"/><path class="cls-22" d="M287.84,471.4l-93.56,71.15"/><path class="cls-22" d="M302.91,471.4l-93.56,71.15"/><path class="cls-22" d="M318,471.4l-93.55,71.15"/><path class="cls-22" d="M333.06,471.4l-93.55,71.15"/><path class="cls-22" d="M348.14,471.4l-93.57,71.15"/><path class="cls-22" d="M192.51,486.19H342.16"/><path class="cls-22" d="M180.55,495.29H330.21"/><path class="cls-22" d="M168.61,504.38H318.26"/><path class="cls-22" d="M156.66,513.46H306.31"/><path class="cls-22" d="M144.71,522.55H294.36"/><path class="cls-22" d="M132.76,531.64H282.41"/><path class="cls-23" d="M423.1,375.47H581.31v5.81H423.1Z"/><path class="cls-23" d="M423.1,375.47H427v74.92H423.1Z"/><path class="cls-22" d="M423.1,375.47H581.31v75.31H423.1Z"/><path class="cls-22" d="M439.78,375.75v75"/><path class="cls-22" d="M455.67,375.75v75"/><path class="cls-22" d="M471.56,375.75v75"/><path class="cls-22" d="M487.45,375.75v75"/><path class="cls-22" d="M503.34,375.75v75"/><path class="cls-22" d="M519.23,375.75v75"/><path class="cls-22" d="M535.12,375.75v75"/><path class="cls-22" d="M551,375.75v75"/><path class="cls-22" d="M566.89,375.75v75"/><path class="cls-22" d="M423.37,391.34H581.11"/><path class="cls-22" d="M423.37,400.93H581.11"/><path class="cls-22" d="M423.37,410.51H581.11"/><path class="cls-22" d="M423.37,420.09H581.11"/><path class="cls-22" d="M423.37,429.66H581.11"/><path class="cls-22" d="M423.37,439.24H581.11"/><path class="cls-25" d="M522.35,423.53h6.58v15.41h-6.58Z"/><path class="cls-6" d="M532.91,414.3h6.59V439h-6.59Z"/><path class="cls-25" d="M543.45,398.89h6.6V439h-6.6Z"/><path class="cls-6" d="M554,413.85h6.59v25.09H554Z"/><path class="cls-25" d="M564.57,398.89h6.58V439h-6.58Z"/><path class="cls-6" d="M461.09,420.43v18.31a17.87,17.87,0,0,1-3.57-.36,17.18,17.18,0,0,1-3.43-1,18.36,18.36,0,0,1-5.93-4,18.26,18.26,0,0,1-4-5.95,17.64,17.64,0,0,1-1-3.43,18.38,18.38,0,0,1,0-7.14,18,18,0,0,1,1-3.44,18.8,18.8,0,0,1,1.69-3.16,18.43,18.43,0,0,1,2.28-2.78,17.87,17.87,0,0,1,2.77-2.28,18.25,18.25,0,0,1,6.59-2.73,18.62,18.62,0,0,1,3.57-.35Z"/><path class="cls-26" d="M461.09,420.43l17.39-5.66a18.17,18.17,0,0,1,.77,3.51,17.94,17.94,0,0,1,.08,3.59,17.66,17.66,0,0,1-.63,3.53,17.88,17.88,0,0,1-1.3,3.35,18.74,18.74,0,0,1-1.93,3,18.5,18.5,0,0,1-2.49,2.59,18.11,18.11,0,0,1-6.23,3.49,17.34,17.34,0,0,1-5.66.91Z"/><path class="cls-25" d="M461.09,420.43V402.12a17.24,17.24,0,0,1,2.87.2,17.78,17.78,0,0,1,2.8.65,18.16,18.16,0,0,1,5.12,2.59,19.38,19.38,0,0,1,2.18,1.87,16.84,16.84,0,0,1,1.85,2.2,17.7,17.7,0,0,1,1.49,2.46,18.76,18.76,0,0,1,1.08,2.68Z"/></svg>